0
SECTION
2
HEADER
9
$INSUNITS
70
4
9
$ACADVER
1
AC1014
9
$HANDSEED
5
FFFF
0
ENDSEC
0
SECTION
2
TABLES
0
TABLE
2
VPORT
5
8
100
AcDbSymbolTable
0
ENDTAB
0
TABLE
2
LTYPE
5
5
100
AcDbSymbolTable
0
LTYPE
5
14
100
AcDbSymbolTableRecord
100
AcDbLinetypeTableRecord
2
BYBLOCK
70
0
0
LTYPE
5
15
100
AcDbSymbolTableRecord
100
AcDbLinetypeTableRecord
2
BYLAYER
70
0
0
LTYPE
5
16
100
AcDbSymbolTableRecord
100
AcDbLinetypeTableRecord
2
DASHED
70
0
3
Dashed __ __ __ __ __ __ __ __ __ __ __ __ __ _
72
65
73
2
40
0.75
49
0.5
74
0
49
-0.25
74
0
0
ENDTAB
0
TABLE
2
LAYER
5
2
100
AcDbSymbolTable
70
3
0
LAYER
5
50
100
AcDbSymbolTableRecord
100
AcDbLayerTableRecord
2
1
70
0
62
7
6
DASHED
0
LAYER
5
51
100
AcDbSymbolTableRecord
100
AcDbLayerTableRecord
2
0
70
0
62
7
6
CONTINUOUS
0
ENDTAB
0
TABLE
2
STYLE
5
3
100
AcDbSymbolTable
70
1
0
STYLE
5
11
100
AcDbSymbolTableRecord
100
AcDbTextStyleTableRecord
2
STANDARD
70
0
0
ENDTAB
0
TABLE
2
VIEW
5
6
100
AcDbSymbolTable
70
0
0
ENDTAB
0
TABLE
2
UCS
5
7
100
AcDbSymbolTable
70
0
0
ENDTAB
0
TABLE
2
APPID
5
9
100
AcDbSymbolTable
70
2
0
APPID
5
12
100
AcDbSymbolTableRecord
100
AcDbRegAppTableRecord
2
ACAD
70
0
0
ENDTAB
0
TABLE
2
DIMSTYLE
5
A
100
AcDbSymbolTable
70
1
0
ENDTAB
0
TABLE
2
BLOCK_RECORD
5
1
100
AcDbSymbolTable
70
1
0
BLOCK_RECORD
5
1F
100
AcDbSymbolTableRecord
100
AcDbBlockTableRecord
2
*MODEL_SPACE
0
BLOCK_RECORD
5
1B
100
AcDbSymbolTableRecord
100
AcDbBlockTableRecord
2
*PAPER_SPACE
0
ENDTAB
0
ENDSEC
0
SECTION
2
BLOCKS
0
BLOCK
5
20
100
AcDbEntity
100
AcDbBlockBegin
2
*MODEL_SPACE
0
ENDBLK
5
21
100
AcDbEntity
100
AcDbBlockEnd
0
BLOCK
5
1C
100
AcDbEntity
100
AcDbBlockBegin
2
*PAPER_SPACE
0
ENDBLK
5
1D
100
AcDbEntity
100
AcDbBlockEnd
0
ENDSEC
0
SECTION
2
ENTITIES
0
LWPOLYLINE
5
100
100
AcDbEntity
8
0
100
AcDbPolyline
90
50
70
1
43
0.0
10
-170.59460119547211
20
58.179800181735573
42
0.17363600461400464
10
-171.57476670296631
20
57.930693628417714
42
-0.10492987241718749
10
-172.82592793473333
20
57.42569360620962
10
-179.5024053378894
20
56.248450503942856
42
0.41421356237317497
10
-179.6889720402188
20
55.982005639886665
10
-179.49607438960524
20
54.88802870091515
42
-0.41421356237309614
10
-184.36303184167699
20
47.93729311684038
10
-192.16763328429869
20
46.561131308829928
42
-0.4142135623730781
10
-195.72988527113705
20
49.055447003016496
10
-196.36804232406305
20
52.674615495336504
42
-0.2475155142677421
10
-195.44096820458449
20
55.561355653600245
42
0.13684465420341746
10
-195.03768464730871
20
56.259179315275958
42
-0.49749650381298371
10
-193.74964770783041
20
56.796914331795065
42
0.1774096625575356
10
-192.73372694046788
20
56.615579842496899
10
-192.17470339251906
20
56.714150776851625
42
0.26080701341243884
10
-191.03983664286869
20
57.640881680088434
42
-0.33416450868790026
10
-188.99599180452788
20
58.894061818264433
42
0.17363600461400003
10
-188.01582629703364
20
59.143168371582263
42
-0.10492987241718817
10
-186.76466506526663
20
59.648168393790385
10
-180.08818766211056
20
60.825411496057143
42
0.41421356237325163
10
-179.90162095978121
20
61.091856360113326
10
-180.09451861039469
20
62.185833299084848
42
-0.1870977046314207
10
-179.25222611806109
20
66.441758815449248
42
0.65182680593997011
10
-180.27029996668463
20
67.962239310188608
10
-181.34591528429871
20
67.772579308829933
42
-0.41421356237307888
10
-184.90816727113707
20
70.266895003016501
10
-185.54632432406305
20
73.886063495336515
42
-0.2475155142677441
10
-184.61925020458449
20
76.772803653600249
42
0.13684465420342426
10
-184.2159666473087
20
77.470627315275948
42
-0.49749650381296967
10
-182.92792970783043
20
78.008362331795084
42
0.17740966255756715
10
-181.91200894046787
20
77.827027842496904
10
-181.35298539251906
20
77.925598776851629
42
0.2608070134124047
10
-180.21811864286866
20
78.852329680088445
42
-0.3341645086878986
10
-178.17427380452787
20
80.105509818264423
42
0.17363600461400053
10
-177.19410829703364
20
80.354616371582239
42
-0.10492987241718658
10
-175.94294706526665
20
80.859616393790347
10
-172.73584688723611
20
81.425114685012048
42
-0.41421356237308143
10
-169.17359490039772
20
78.93079899082548
10
-168.67435638960526
20
76.099476700915147
42
-0.18709770463141853
10
-169.51664888193886
20
71.84355118455079
42
0.65182680593997011
10
-168.49857503331532
20
70.323070689811431
10
-167.42295971570127
20
70.512730691170077
42
-0.4142135623730781
10
-163.86070772886291
20
68.018414996983523
10
-163.22255067593693
20
64.399246504663495
42
-0.2475155142677461
10
-164.14962479541555
20
61.512506346399711
42
0.13684465420334396
10
-164.5529083526913
20
60.814682684724026
42
-0.4974965038129604
10
-165.84094529216958
20
60.276947668204926
42
0.17740966255756715
10
-166.85686605953214
20
60.458282157503113
10
-167.41588960748092
20
60.359711223148373
42
0.26080701341244034
10
-168.55075635713132
20
59.432980319911557
42
-0.3341645086878991
0
LWPOLYLINE
5
101
100
AcDbEntity
8
0
100
AcDbPolyline
90
16
70
1
43
0.0
10
-122.92703396931705
20
64.300930970709032
42
0.1989123673797121
10
-123.34006626705212
20
63.656577993952787
10
-123.79164412066353
20
61.136721362688263
42
0.19891236737967111
10
-123.62807569989897
20
60.389037064768644
10
-123.55132316713446
20
60.278768988181426
42
0.19891236737963991
10
-122.90697019037829
20
59.865736690446411
10
-121.51908040518963
20
59.61701607576201
42
0.19891236737964835
10
-120.77139610727009
20
59.780584496526529
10
-120.66112803068292
20
59.857337029290974
42
0.19891236737966453
10
-120.24809573294783
20
60.501690006047198
10
-119.79651787933642
20
63.021546637311737
42
0.19891236737967111
10
-119.96008630010098
20
63.769230935231363
10
-120.0368388328655
20
63.879499011818581
42
0.19891236737963389
10
-120.68119180962165
20
64.292531309553596
10
-122.06908159481033
20
64.541251924237983
42
0.1989123673796481
10
-122.81676589272989
20
64.377683503473463
0
LWPOLYLINE
5
102
100
AcDbEntity
8
0
100
AcDbPolyline
90
16
70
1
43
0.0
10
-196.78566598574153
20
117.36966656218564
42
0.19891236737966594
10
-196.37623885701868
20
116.72301683946654
10
-196.26640116499459
20
116.64564965384598
42
0.19891236737963544
10
-195.51964206188592
20
116.4779079489806
10
-194.1303848119976
20
116.71887328597481
42
0.19891236737964166
10
-193.48373508927858
20
117.12830041469761
10
-193.40636790365807
20
117.23813810672154
42
0.19891236737967952
10
-193.23862619879262
20
117.98489720983034
10
-193.67612354822884
20
120.50723661388295
42
0.19891236737966894
10
-194.08555067695175
20
121.15388633660204
10
-194.19538836897578
20
121.2312535222226
42
0.19891236737962284
10
-194.94214747208443
20
121.39899522708797
10
-196.3314047219728
20
121.15802989009376
42
0.19891236737965468
10
-196.97805444469191
20
120.74860276137093
10
-197.0554216303124
20
120.63876506934696
42
0.19891236737969753
10
-197.22316333517779
20
119.89200596623823
0
LWPOLYLINE
5
103
100
AcDbEntity
8
0
100
AcDbPolyline
90
16
70
1
43
0.0
10
-216.02947420458452
20
90.659165653600269
42
0.13684465420335779
10
-215.6261906473087
20
91.356989315275982
42
-0.49749650381298366
10
-214.3381537078304
20
91.894724331795061
42
0.17740966255753488
10
-213.32223294046784
20
91.713389842496923
10
-212.76320939251906
20
91.811960776851649
42
0.26080701341243251
10
-211.62834264286869
20
92.738691680088465
42
-0.33416450868789899
10
-209.58449780452787
20
93.991871818264457
42
0.1736360046139932
10
-208.60433229703364
20
94.240978371582287
42
-0.10492987241718559
10
-207.35317106526665
20
94.745978393790367
10
-204.14607088723611
20
95.311476685012039
42
-0.4142135623730811
10
-200.58381890039772
20
92.817160990825471
10
-200.08458038960526
20
89.985838700915153
42
-0.41421356237309775
10
-204.95153784167707
20
83.035103116840389
10
-212.75613928429874
20
81.658941308829924
42
-0.4142135623730781
10
-216.31839127113707
20
84.153257003016506
10
-216.95654832406308
20
87.772425495336535
42
-0.2475155142677421
0
LWPOLYLINE
5
104
100
AcDbEntity
8
0
100
AcDbPolyline
90
16
70
1
43
0.0
10
-220.77532398574152
20
74.539819562185642
42
0.19891236737966725
10
-220.36589685701867
20
73.893169839466523
10
-220.25605916499458
20
73.815802653845978
42
0.19891236737963833
10
-219.50930006188594
20
73.6480609489806
10
-218.12004281199759
20
73.889026285974808
42
0.19891236737964352
10
-217.47339308927855
20
74.298453414697619
10
-217.39602590365806
20
74.408291106721535
42
0.19891236737967952
10
-217.22828419879261
20
75.155050209830335
10
-217.66578154822884
20
77.677389613882923
42
0.19891236737967574
10
-218.07520867695175
20
78.324039336602041
10
-218.1850463689758
20
78.401406522222587
42
0.19891236737962406
10
-218.93180547208442
20
78.569148227087965
10
-220.32106272197279
20
78.328182890093757
42
0.19891236737965615
10
-220.96771244469187
20
77.918755761370932
10
-221.04507963031239
20
77.80891806934693
42
0.19891236737969378
10
-221.21282133517778
20
77.062158966238229
0
LWPOLYLINE
5
105
100
AcDbEntity
8
0
100
AcDbPolyline
90
16
70
1
43
0.0
10
-92.76718396931706
20
97.603016970709035
42
0.19891236737971663
10
-93.180216267052145
20
96.958663993952783
10
-93.631794120663557
20
94.438807362688266
42
0.19891236737967111
10
-93.46822569989898
20
93.691123064768647
10
-93.391473167134478
20
93.580854988181429
42
0.1989123673796403
10
-92.747120190378297
20
93.1678226904464
10
-91.359230405189635
20
92.919102075762012
42
0.19891236737964707
10
-90.611546107270101
20
93.082670496526532
10
-90.50127803068294
20
93.159423029290963
42
0.19891236737967091
10
-90.088245732947854
20
93.803776006047201
10
-89.636667879336414
20
96.323632637311761
42
0.19891236737966964
10
-89.800236300101005
20
97.07131693523138
10
-89.876988832865521
20
97.181585011818584
42
0.19891236737963575
10
-90.521341809621674
20
97.594617309553598
10
-91.909231594810336
20
97.843337924237971
42
0.1989123673796481
10
-92.656915892729899
20
97.679769503473466
0
LWPOLYLINE
5
106
100
AcDbEntity
8
0
100
AcDbPolyline
90
16
70
1
43
0.0
10
-133.89758715158223
20
97.612518158753886
42
0.13684458693365734
10
-133.2799546911846
20
98.130326056582717
42
-0.4974961649736111
10
-131.8856802231966
20
98.195096517385778
42
0.17740962621325204
10
-130.99304715803396
20
97.677232631957338
10
-130.43402426231526
20
97.578661812608374
42
0.26080703574133324
10
-129.05063763257544
20
98.061356809369599
42
-0.33416451074341486
10
-126.70143889618763
20
98.539925023306211
42
0.17363594226407653
10
-125.69518548729036
20
98.438772254989217
42
-0.10492983049328992
10
-124.34675885356273
20
98.485394575489181
10
-121.13965867553219
20
97.919896284267466
42
-0.41421356237307777
10
-118.64534298134542
20
94.357644297429289
10
-119.14458149213792
20
91.526322007518957
42
-0.41421356237309337
10
-126.09531707621274
20
86.659364555447382
10
-133.89991851883445
20
88.035526363457762
42
-0.41421356237307949
10
-136.39423421302124
20
91.59777835029594
10
-135.75607716009526
20
95.216946842615968
42
-0.24751569504953772
0
LWPOLYLINE
5
107
100
AcDbEntity
8
0
100
AcDbPolyline
90
16
70
1
43
0.0
10
-198.16909720458449
20
113.09145965360018
42
0.13684465420329503
10
-197.7658136473087
20
113.78928331527598
42
-0.49749650381298366
10
-196.4777767078304
20
114.32701833179507
42
0.17740966255754553
10
-195.46185594046784
20
114.14568384249689
10
-194.90283239251909
20
114.24425477685162
42
0.26080701341243251
10
-193.76796564286872
20
115.17098568008845
42
-0.33416450868790643
10
-191.72412080452787
20
116.42416581826441
42
0.17363600461399095
10
-190.74395529703364
20
116.67327237158227
42
-0.10492987241718559
10
-189.49279406526665
20
117.17827239379035
10
-186.28569388723608
20
117.74377068501201
42
-0.41421356237308282
10
-182.72344190039775
20
115.24945499082547
10
-182.22420338960524
20
112.41813270091514
42
-0.41421356237309775
10
-187.09116084167704
20
105.46739711684039
10
-194.89576228429871
20
104.09123530882992
42
-0.4142135623730781
10
-198.45801427113707
20
106.58555100301649
10
-199.09617132406299
20
110.20471949533652
42
-0.24751551426774115
0
LWPOLYLINE
5
108
100
AcDbEntity
8
0
100
AcDbPolyline
90
16
70
1
43
0.0
10
-130.5372111515822
20
116.3637941587539
42
0.13684458693362467
10
-129.9195786911846
20
116.88160205658275
42
-0.49749616497360583
10
-128.52530422319657
20
116.94637251738578
42
0.17740962621327921
10
-127.63267115803396
20
116.42850863195734
10
-127.07364826231525
20
116.32993781260839
42
0.26080703574131076
10
-125.69026163257541
20
116.81263280936962
42
-0.33416451074340914
10
-123.34106289618762
20
117.29120102330623
42
0.17363594226407772
10
-122.3348094872904
20
117.19004825498922
42
-0.10492983049329015
10
-120.98638285356276
20
117.23667057548921
10
-117.77928267553222
20
116.67117228426747
42
-0.41421356237307777
10
-115.28496698134545
20
113.10892029742929
10
-115.78420549213794
20
110.27759800751896
42
-0.4142135623730942
10
-122.73494107621276
20
105.41064055544737
10
-130.53954251883448
20
106.78680236345777
42
-0.41421356237307949
10
-133.03385821302126
20
110.34905435029594
10
-132.39570116009526
20
113.96822284261597
42
-0.24751569504954229
0
LWPOLYLINE
5
109
100
AcDbEntity
8
0
100
AcDbPolyline
90
16
70
1
43
0.0
10
-130.26974596931703
20
104.32376497070905
42
0.19891236737971663
10
-130.6827782670521
20
103.67941199395278
10
-131.13435612066351
20
101.15955536268828
42
0.19891236737967111
10
-130.97078769989895
20
100.41187106476866
10
-130.89403516713443
20
100.30160298818144
42
0.1989123673796403
10
-130.24968219037828
20
99.888570690446414
10
-128.86179240518962
20
99.639850075762013
42
0.19891236737964707
10
-128.11410810727008
20
99.803418496526533
10
-128.00384003068291
20
99.880171029290977
42
0.19891236737967091
10
-127.59080773294782
20
100.52452400604722
10
-127.1392298793364
20
103.04438063731176
42
0.19891236737966964
10
-127.30279830010097
20
103.79206493523139
10
-127.37955083286549
20
103.90233301181858
42
0.19891236737963575
10
-128.02390380962163
20
104.31536530955361
10
-129.41179359481032
20
104.56408592423799
42
0.1989123673796481
10
-130.15947789272988
20
104.40051750347348
0
LWPOLYLINE
5
110
100
AcDbEntity
8
0
100
AcDbPolyline
90
16
70
1
43
0.0
10
-105.50319996931705
20
80.531926970709037
42
0.1989123673797121
10
-105.91623226705212
20
79.887573993952799
10
-106.36781012066353
20
77.367717362688268
42
0.19891236737967111
10
-106.20424169989897
20
76.620033064768649
10
-106.12748916713446
20
76.509764988181431
42
0.19891236737963991
10
-105.48313619037829
20
76.096732690446416
10
-104.09524640518964
20
75.848012075762014
42
0.19891236737964835
10
-103.34756210727009
20
76.011580496526534
10
-103.23729403068293
20
76.088333029290979
42
0.19891236737966958
10
-102.82426173294783
20
76.732686006047203
10
-102.37268387933642
20
79.252542637311748
42
0.19891236737967111
10
-102.536252300101
20
80.000226935231368
10
-102.6130048328655
20
80.110495011818585
42
0.1989123673796335
10
-103.25735780962165
20
80.5235273095536
10
-104.64524759481034
20
80.772247924237988
42
0.1989123673796481
10
-105.39293189272989
20
80.608679503473468
0
LWPOLYLINE
5
111
100
AcDbEntity
8
0
100
AcDbPolyline
90
16
70
1
43
0.0
10
-72.999448969317044
20
113.41396697070905
42
0.19891236737971663
10
-73.412481267052129
20
112.76961399395279
10
-73.864059120663541
20
110.24975736268829
42
0.19891236737967111
10
-73.700490699898978
20
109.50207306476867
10
-73.623738167134462
20
109.39180498818145
42
0.19891236737964166
10
-72.979385190378295
20
108.97877269044642
10
-71.591495405189647
20
108.73005207576202
42
0.19891236737964935
10
-70.843811107270099
20
108.89362049652654
10
-70.733543030682952
20
108.97037302929098
42
0.19891236737967474
10
-70.320510732947838
20
109.61472600604722
10
-69.868932879336413
20
112.13458263731177
42
0.19891236737966997
10
-70.032501300100989
20
112.8822669352314
10
-70.109253832865491
20
112.99253501181859
42
0.19891236737963711
10
-70.753606809621658
20
113.40556730955362
10
-72.141496594810334
20
113.65428792423799
42
0.1989123673796481
10
-72.889180892729883
20
113.49071950347349
0
LWPOLYLINE
5
112
100
AcDbEntity
8
0
100
AcDbPolyline
90
16
70
1
43
0.0
10
-111.51846596931706
20
100.96338897070905
42
0.19891236737971663
10
-111.93149826705215
20
100.31903599395278
10
-112.38307612066356
20
97.799179362688278
42
0.19891236737967111
10
-112.219507699899
20
97.051495064768645
10
-112.14275516713448
20
96.941226988181427
42
0.1989123673796403
10
-111.4984021903783
20
96.528194690446412
10
-110.11051240518965
20
96.27947407576201
42
0.19891236737964707
10
-109.3628281072701
20
96.443042496526516
10
-109.25256003068296
20
96.519795029290961
42
0.19891236737967091
10
-108.83952773294786
20
97.164148006047213
10
-108.38794987933642
20
99.684004637311745
42
0.19891236737966964
10
-108.55151830010101
20
100.43168893523138
10
-108.62827083286552
20
100.54195701181857
42
0.19891236737963575
10
-109.27262380962168
20
100.9549893095536
10
-110.66051359481035
20
101.20370992423798
42
0.1989123673796481
10
-111.4081978927299
20
101.04014150347346
0
LWPOLYLINE
5
113
100
AcDbEntity
8
0
100
AcDbPolyline
90
16
70
1
43
0.0
10
-222.15875520458445
20
70.261612653600295
42
0.13684465420335884
10
-221.7554716473087
20
70.95943631527598
42
-0.4974965038129604
10
-220.46743470783042
20
71.497171331795087
42
0.17740966255756715
10
-219.45151394046786
20
71.315836842496893
10
-218.89249039251911
20
71.414407776851618
42
0.26080701341243939
10
-217.75762364286874
20
72.341138680088449
42
-0.33416450868790404
10
-215.71377880452789
20
73.594318818264426
42
0.1736360046140181
10
-214.73361329703363
20
73.843425371582256
42
-0.10492987241718546
10
-213.48245206526661
20
74.34842539379035
10
-210.27535188723607
20
74.913923685012037
42
-0.4142135623730806
10
-206.71309990039771
20
72.419607990825483
10
-206.21386138960528
20
69.588285700915137
42
-0.4142135623730977
10
-211.08081884167703
20
62.637550116840394
10
-218.8854202842987
20
61.261388308829929
42
-0.41421356237307888
10
-222.44767227113704
20
63.755704003016504
10
-223.08582932406307
20
67.374872495336504
42
-0.24751551426774715
0
LWPOLYLINE
5
114
100
AcDbEntity
8
0
100
AcDbPolyline
90
16
70
1
43
0.0
10
-252.18554498574153
20
88.426181562185647
42
0.19891236737966594
10
-251.77611785701868
20
87.779531839466529
10
-251.66628016499459
20
87.702164653845983
42
0.19891236737963544
10
-250.91952106188592
20
87.53442294898062
10
-249.5302638119976
20
87.775388285974827
42
0.19891236737964166
10
-248.88361408927858
20
88.184815414697624
10
-248.80624690365806
20
88.29465310672154
42
0.19891236737967952
10
-248.63850519879261
20
89.041412209830341
10
-249.07600254822884
20
91.563751613882957
42
0.19891236737966894
10
-249.48542967695175
20
92.210401336602047
10
-249.59526736897578
20
92.287768522222606
42
0.19891236737962284
10
-250.34202647208443
20
92.45551022708797
10
-251.7312837219728
20
92.214544890093762
42
0.19891236737965468
10
-252.37793344469191
20
91.805117761370937
10
-252.45530063031239
20
91.695280069346964
42
0.19891236737969753
10
-252.62304233517779
20
90.948520966238235
0
LWPOLYLINE
5
115
100
AcDbEntity
8
0
100
AcDbPolyline
90
16
70
1
43
0.0
10
-231.2891507078304
20
50.28572433179508
42
0.17740966255756188
10
-230.27322994046787
20
50.104389842496893
10
-229.71420639251906
20
50.20296077685164
42
0.2608070134124047
10
-228.57933964286869
20
51.129691680088456
42
-0.33416450868790354
10
-226.53549480452784
20
52.382871818264434
42
0.17363600461399564
10
-225.55532929703364
20
52.63197837158225
42
-0.10492987241718704
10
-224.30416806526665
20
53.136978393790351
10
-221.09706788723611
20
53.702476685012044
42
-0.4142135623730806
10
-217.53481590039772
20
51.20816099082549
10
-217.03557738960529
20
48.376838700915144
42
-0.4142135623730977
10
-221.90253484167704
20
41.426103116840395
10
-229.70713628429874
20
40.049941308829929
42
-0.41421356237307888
10
-233.26938827113707
20
42.544257003016511
10
-233.90754532406305
20
46.163425495336519
42
-0.24751551426774362
10
-232.98047120458449
20
49.050165653600246
42
0.13684465420341746
10
-232.57718764730873
20
49.747989315275952
42
-0.49749650381298061
0
LWPOLYLINE
5
116
100
AcDbEntity
8
0
100
AcDbPolyline
90
14
70
1
43
0.0
10
-177.85297016761845
20
108.62473319442616
42
0.41421356237309759
10
-177.44830498647755
20
108.33969619477138
10
-177.30051263859423
20
108.36533063570421
42
-0.41421356237304857
10
-176.89584745745327
20
108.08029363604942
10
-174.27428130888541
20
92.965962988326751
42
0.41421356237306711
10
-172.54000196113878
20
91.744375846949296
10
-162.34226308193848
20
93.513163870762554
42
0.41421356237310591
10
-161.12067594056094
20
95.247443218509346
10
-165.38456648500613
20
119.83040160376771
42
0.41421356237309848
10
-167.11884583275287
20
121.05198874514534
10
-168.10413512627179
20
120.88109126257467
10
-177.1687903813378
20
119.308832575781
10
-178.15407874720358
20
119.13793525411106
42
0.41421356237309165
10
-179.37566588858121
20
117.40365590636438
0
LWPOLYLINE
5
117
100
AcDbEntity
8
0
100
AcDbPolyline
90
16
70
1
43
0.0
10
-234.79922320458454
20
87.403566653600222
42
0.136844654203405
10
-234.39593964730875
20
88.101390315275921
42
-0.49749650381299909
10
-233.10790270783042
20
88.639125331795071
42
0.17740966255756255
10
-232.09198194046786
20
88.457790842496919
10
-231.53295839251908
20
88.556361776851631
42
0.26080701341241586
10
-230.39809164286868
20
89.483092680088433
42
-0.33416450868790676
10
-228.35424680452786
20
90.73627281826441
42
0.17363600461401121
10
-227.37408129703363
20
90.985379371582255
42
-0.10492987241718625
10
-226.12292006526661
20
91.490379393790349
10
-222.91581988723607
20
92.055877685012021
42
-0.4142135623730811
10
-219.35356790039771
20
89.561561990825453
10
-218.85432938960525
20
86.730239700915135
42
-0.41421356237309587
10
-223.721286841677
20
79.7795041168404
10
-231.5258882842987
20
78.403342308829906
42
-0.4142135623730781
10
-235.08814027113704
20
80.897658003016488
10
-235.72629732406307
20
84.516826495336517
42
-0.24751551426773796
0
LWPOLYLINE
5
118
100
AcDbEntity
8
0
100
AcDbPolyline
90
16
70
1
43
0.0
10
-239.54507598574153
20
71.284222562185647
42
0.19891236737966725
10
-239.13564885701868
20
70.637572839466529
10
-239.02581116499459
20
70.560205653845983
42
0.19891236737963833
10
-238.27905206188592
20
70.392463948980605
10
-236.8897948119976
20
70.633429285974813
42
0.19891236737964352
10
-236.24314508927856
20
71.042856414697624
10
-236.16577790365807
20
71.15269410672154
42
0.19891236737967952
10
-235.99803619879259
20
71.899453209830341
10
-236.43553354822885
20
74.421792613882928
42
0.19891236737967574
10
-236.84496067695176
20
75.068442336602047
10
-236.95479836897579
20
75.145809522222592
42
0.19891236737962406
10
-237.7015574720844
20
75.31355122708797
10
-239.09081472197278
20
75.072585890093762
42
0.19891236737965615
10
-239.73746444469188
20
74.663158761370937
10
-239.8148316303124
20
74.553321069346936
42
0.19891236737969378
10
-239.98257333517779
20
73.806561966238235
0
LWPOLYLINE
5
119
100
AcDbEntity
8
0
100
AcDbPolyline
90
16
70
1
43
0.0
10
-202.00556898574152
20
77.795413562185644
42
0.19891236737966725
10
-201.59614185701867
20
77.148763839466525
10
-201.48630416499458
20
77.071396653845994
42
0.19891236737963833
10
-200.73954506188591
20
76.903654948980616
10
-199.35028781199759
20
77.144620285974824
42
0.19891236737964352
10
-198.70363808927857
20
77.554047414697621
10
-198.62627090365805
20
77.663885106721537
42
0.19891236737967952
10
-198.4585291987926
20
78.410644209830338
10
-198.89602654822883
20
80.932983613882925
42
0.19891236737967807
10
-199.30545367695174
20
81.579633336602058
10
-199.41529136897577
20
81.657000522222617
42
0.19891236737961931
10
-200.16205047208442
20
81.824742227087981
10
-201.55130772197279
20
81.583776890093773
42
0.19891236737965468
10
-202.19795744469189
20
81.174349761370934
10
-202.27532463031238
20
81.064512069346961
42
0.19891236737969753
10
-202.44306633517778
20
80.317752966238231
0
LWPOLYLINE
5
120
100
AcDbEntity
8
0
100
AcDbPolyline
90
16
70
1
43
0.0
10
-201.69767970783045
20
74.752765331795089
42
0.17740966255754664
10
-200.68175894046786
20
74.571430842496909
10
-200.1227353925191
20
74.67000177685162
42
0.26080701341244056
10
-198.98786864286873
20
75.596732680088451
42
-0.33416450868790404
10
-196.94402380452789
20
76.849912818264428
42
0.17363600461401407
10
-195.96385829703365
20
77.099019371582244
42
-0.10492987241718771
10
-194.71269706526664
20
77.604019393790352
10
-191.50559688723607
20
78.169517685012039
42
-0.4142135623730806
10
-187.9433449003977
20
75.675201990825485
10
-187.44410638960528
20
72.843879700915139
42
-0.4142135623730977
10
-192.31106384167703
20
65.893144116840404
10
-200.1156652842987
20
64.516982308829938
42
-0.41421356237307888
10
-203.67791727113706
20
67.011298003016506
10
-204.31607432406304
20
70.63046649533652
42
-0.24751551426773949
10
-203.38900020458451
20
73.517206653600212
42
0.136844654203364
10
-202.98571664730875
20
74.215030315275911
42
-0.49749650381298494
0
LWPOLYLINE
5
121
100
AcDbEntity
8
0
100
AcDbPolyline
90
16
70
1
43
0.0
10
-231.59703998574156
20
53.328372562185649
42
0.19891236737966725
10
-231.18761285701868
20
52.681722839466531
10
-231.07777516499459
20
52.604355653845985
42
0.19891236737963833
10
-230.33101606188595
20
52.436613948980614
10
-228.9417588119976
20
52.677579285974822
42
0.19891236737964352
10
-228.29510908927858
20
53.087006414697626
10
-228.21774190365807
20
53.196844106721535
42
0.19891236737967952
10
-228.05000019879262
20
53.943603209830336
10
-228.48749754822887
20
56.46594261388293
42
0.19891236737967574
10
-228.89692467695176
20
57.112592336602049
10
-229.00676236897581
20
57.189959522222594
42
0.19891236737962406
10
-229.75352147208443
20
57.357701227087972
10
-231.1427787219728
20
57.116735890093764
42
0.19891236737965615
10
-231.78942844469191
20
56.707308761370932
10
-231.86679563031242
20
56.597471069346945
42
0.19891236737969378
10
-232.03453733517779
20
55.850711966238229
0
LWPOLYLINE
5
122
100
AcDbEntity
8
0
100
AcDbPolyline
90
16
70
1
43
0.0
10
-183.23581898574156
20
81.051010562185652
42
0.19891236737967055
10
-182.82639185701868
20
80.40436083946652
10
-182.71655416499459
20
80.32699365384596
42
0.19891236737963544
10
-181.96979506188595
20
80.159251948980597
10
-180.5805378119976
20
80.400217285974819
42
0.19891236737964463
10
-179.93388808927858
20
80.809644414697615
10
-179.85652090365804
20
80.919482106721546
42
0.19891236737967499
10
-179.68877919879262
20
81.666241209830332
10
-180.12627654822887
20
84.18858061388292
42
0.19891236737967807
10
-180.53570367695175
20
84.835230336602052
10
-180.64554136897581
20
84.912597522222612
42
0.19891236737961931
10
-181.39230047208443
20
85.080339227087975
10
-182.7815577219728
20
84.839373890093768
42
0.19891236737965468
10
-183.42820744469191
20
84.429946761370928
10
-183.5055746303124
20
84.320109069346955
42
0.19891236737969753
10
-183.67331633517779
20
83.573349966238226
0
LWPOLYLINE
5
123
100
AcDbEntity
8
0
100
AcDbPolyline
90
16
70
1
43
0.0
10
-152.6488601515822
20
100.97289215875389
42
0.13684458693365456
10
-152.0312276911846
20
101.49070005658274
42
-0.49749616497360583
10
-150.63695322319657
20
101.55547051738579
42
0.17740962621329096
10
-149.74432015803396
20
101.03760663195736
10
-149.18529726231529
20
100.93903581260835
42
0.26080703574131897
10
-147.80191063257544
20
101.42173080936958
42
-0.33416451074341424
10
-145.45271189618762
20
101.90029902330622
42
0.17363594226406254
10
-144.44645848729041
20
101.79914625498918
42
-0.10492983049329081
10
-143.09803185356276
20
101.84576857548917
10
-139.89093167553222
20
101.28027028426744
42
-0.41421356237307777
10
-137.39661598134543
20
97.718018297429268
10
-137.89585449213794
20
94.886696007518935
42
-0.41421356237309337
10
-144.84659007621278
20
90.019738555447361
10
-152.65119151883448
20
91.395900363457741
42
-0.41421356237307949
10
-155.14550721302126
20
94.958152350295933
10
-154.50735016009526
20
98.577320842615961
42
-0.2475156950495436
0
LWPOLYLINE
5
124
100
AcDbEntity
8
0
100
AcDbPolyline
90
16
70
1
43
0.0
10
-141.67831196931704
20
67.661306970709035
42
0.1989123673797121
10
-142.09134426705214
20
67.016953993952797
10
-142.54292212066355
20
64.49709736268828
42
0.19891236737967111
10
-142.37935369989896
20
63.749413064768646
10
-142.30260116713447
20
63.639144988181435
42
0.19891236737963991
10
-141.65824819037829
20
63.226112690446421
10
-140.27035840518963
20
62.977392075762012
42
0.19891236737964835
10
-139.52267410727009
20
63.140960496526539
10
-139.41240603068292
20
63.217713029290977
42
0.19891236737966958
10
-138.99937373294784
20
63.862066006047215
10
-138.54779587933643
20
66.381922637311746
42
0.19891236737967111
10
-138.711364300101
20
67.129606935231379
10
-138.78811683286551
20
67.239875011818583
42
0.19891236737963389
10
-139.43246980962164
20
67.652907309553598
10
-140.82035959481033
20
67.901627924237985
42
0.1989123673796481
10
-141.56804389272989
20
67.73805950347348
0
LWPOLYLINE
5
125
100
AcDbEntity
8
0
100
AcDbPolyline
90
16
70
1
43
0.0
10
-165.26330036968758
20
53.965200930653069
42
0.19891236737970333
10
-165.09555866482219
20
54.711960033761791
10
-165.53305601425848
20
57.234299437814364
42
0.19891236737966372
10
-165.94248314298136
20
57.880949160533469
10
-166.05232083500539
20
57.958316346154021
42
0.19891236737963833
10
-166.79907993811406
20
58.126058051019392
10
-168.18833718800244
20
57.885092714025184
42
0.19891236737964166
10
-168.83498691072145
20
57.475665585302387
10
-168.91235409634191
20
57.365827893278464
42
0.19891236737967771
10
-169.08009580120736
20
56.619068790169671
10
-168.64259845177111
20
54.096729386117069
42
0.19891236737967191
10
-168.23317132304823
20
53.450079663397958
10
-168.12333363102422
20
53.372712477777441
42
0.19891236737963572
10
-167.37657452791555
20
53.204970772912041
10
-165.98731727802718
20
53.445936109906249
42
0.19891236737965615
10
-165.34066755530807
20
53.855363238629081
0
LWPOLYLINE
5
126
100
AcDbEntity
8
0
100
AcDbPolyline
90
16
70
1
43
0.0
10
-143.00575496931708
20
87.252674970709023
42
0.19891236737970383
10
-143.41878726705215
20
86.608321993952799
10
-143.87036512066356
20
84.088465362688268
42
0.19891236737967111
10
-143.706796699899
20
83.340781064768649
10
-143.63004416713446
20
83.230512988181431
42
0.19891236737963686
10
-142.9856911903783
20
82.817480690446416
10
-141.59780140518964
20
82.568760075762015
42
0.19891236737964962
10
-140.85011710727011
20
82.732328496526549
10
-140.73984903068293
20
82.809081029290979
42
0.19891236737966453
10
-140.32681673294786
20
83.453434006047203
10
-139.87523887933645
20
85.973290637311734
42
0.19891236737967269
10
-140.03880730010101
20
86.720974935231368
10
-140.11555983286553
20
86.8312430118186
42
0.19891236737963203
10
-140.75991280962168
20
87.244275309553601
10
-142.14780259481034
20
87.492995924237988
42
0.1989123673796481
10
-142.89548689272991
20
87.329427503473482
0
LWPOLYLINE
5
127
100
AcDbEntity
8
0
100
AcDbPolyline
90
16
70
1
43
0.0
10
-197.25972020458454
20
93.914759653600228
42
0.136844654203405
10
-196.85643664730875
20
94.612583315275941
42
-0.49749650381297883
10
-195.56839970783045
20
95.150318331795077
42
0.17740966255755741
10
-194.55247894046784
20
94.968983842496925
10
-193.99345539251908
20
95.067554776851637
42
0.26080701341241586
10
-192.85858864286868
20
95.994285680088453
42
-0.33416450868790676
10
-190.81474380452786
20
97.24746581826443
42
0.17363600461401121
10
-189.8345782970336
20
97.496572371582261
42
-0.10492987241718625
10
-188.58341706526662
20
98.001572393790354
10
-185.37631688723607
20
98.567070685012027
42
-0.4142135623730811
10
-181.81406490039768
20
96.072754990825473
10
-181.31482638960529
20
93.241432700915141
42
-0.41421356237309587
10
-186.18178384167697
20
86.290697116840406
10
-193.98638528429871
20
84.914535308829926
42
-0.4142135623730781
10
-197.54863727113704
20
87.408851003016508
10
-198.18679432406304
20
91.028019495336537
42
-0.24751551426773796
0
LWPOLYLINE
5
128
100
AcDbEntity
8
0
100
AcDbPolyline
90
16
70
1
43
0.0
10
-149.02101896931705
20
107.68413897070903
42
0.19891236737971663
10
-149.43405126705213
20
107.03978599395278
10
-149.88562912066354
20
104.51992936268826
42
0.19891236737967111
10
-149.72206069989898
20
103.77224506476864
10
-149.64530816713446
20
103.66197698818142
42
0.1989123673796403
10
-149.00095519037831
20
103.24894469044639
10
-147.61306540518964
20
103.00022407576201
42
0.19891236737964707
10
-146.86538110727011
20
103.16379249652653
10
-146.75511303068294
20
103.24054502929096
42
0.19891236737967091
10
-146.34208073294784
20
103.88489800604719
10
-145.89050287933642
20
106.40475463731175
42
0.19891236737966964
10
-146.05407130010099
20
107.15243893523137
10
-146.1308238328655
20
107.26270701181858
42
0.19891236737963575
10
-146.77517680962166
20
107.67573930955359
10
-148.16306659481035
20
107.92445992423796
42
0.1989123673796481
10
-148.91075089272991
20
107.76089150347346
0
LWPOLYLINE
5
129
100
AcDbEntity
8
0
100
AcDbPolyline
90
16
70
1
43
0.0
10
-247.43969720458452
20
104.54552165360022
42
0.13684465420341607
10
-247.03641364730873
20
105.24334531527593
42
-0.49749650381299293
10
-245.7483767078304
20
105.78108033179507
42
0.17740966255756138
10
-244.73245594046779
20
105.59974584249687
10
-244.17343239251909
20
105.69831677685161
42
0.26080701341245233
10
-243.03856564286872
20
106.62504768008843
42
-0.33416450868790465
10
-240.99472080452787
20
107.87822781826442
42
0.17363600461400031
10
-240.01455529703364
20
108.12733437158226
42
-0.10492987241718625
10
-238.76339406526665
20
108.63233439379036
10
-235.55629388723611
20
109.197832685012
42
-0.41421356237308282
10
-231.99404190039775
20
106.70351699082546
10
-231.49480338960529
20
103.87219470091514
42
-0.41421356237309587
10
-236.36176084167701
20
96.921459116840396
10
-244.16636228429871
20
95.545297308829916
42
-0.4142135623730781
10
-247.72861427113708
20
98.039613003016498
10
-248.36677132406305
20
101.65878149533651
42
-0.24751551426774102
0
LWPOLYLINE
5
130
100
AcDbEntity
8
0
100
AcDbPolyline
90
16
70
1
43
0.0
10
-253.56897620458452
20
84.14797465360023
42
0.13684465420340872
10
-253.1656926473087
20
84.845798315275957
42
-0.49749650381298682
10
-251.8776557078304
20
85.383533331795064
42
0.17740966255755239
10
-250.86173494046784
20
85.20219884249687
10
-250.30271139251909
20
85.300769776851624
42
0.26080701341243251
10
-249.16784464286872
20
86.22750068008844
42
-0.33416450868790643
10
-247.12399980452787
20
87.480680818264432
42
0.17363600461399095
10
-246.14383429703364
20
87.729787371582276
42
-0.10492987241718559
10
-244.89267306526665
20
88.234787393790356
10
-241.68557288723608
20
88.800285685012014
42
-0.41421356237308282
10
-238.12332090039774
20
86.305969990825474
10
-237.62408238960529
20
83.474647700915142
42
-0.4142135623730977
10
-242.49103984167704
20
76.523912116840393
10
-250.29564128429871
20
75.147750308829927
42
-0.41421356237307888
10
-253.85789327113707
20
77.64206600301651
10
-254.49605032406305
20
81.26123449533651
42
-0.24751551426774102
0
LWPOLYLINE
5
131
100
AcDbEntity
8
0
100
AcDbPolyline
90
16
70
1
43
0.0
10
-194.32729263031234
20
63.108661069346923
42
0.19891236737970139
10
-194.49503433517773
20
62.361901966238207
10
-194.05753698574154
20
59.839562562185634
42
0.19891236737966372
10
-193.64810985701865
20
59.19291283946653
10
-193.53827216499457
20
59.115545653845984
42
0.19891236737963833
10
-192.79151306188592
20
58.947803948980606
10
-191.40225581199758
20
59.188769285974814
42
0.19891236737964352
10
-190.75560608927856
20
59.598196414697625
10
-190.67823890365804
20
59.708034106721541
42
0.19891236737967771
10
-190.51049719879259
20
60.454793209830335
10
-190.94799454822888
20
62.977132613882929
42
0.19891236737967191
10
-191.35742167695173
20
63.623782336602048
10
-191.46725936897576
20
63.701149522222565
42
0.19891236737963572
10
-192.2140184720844
20
63.868891227087971
10
-193.60327572197278
20
63.627925890093763
42
0.19891236737965615
10
-194.24992544469188
20
63.218498761370931
0
LWPOLYLINE
5
132
100
AcDbEntity
8
0
100
AcDbPolyline
90
16
70
1
43
0.0
10
-212.82729098574154
20
56.583966562185651
42
0.19891236737966725
10
-212.41786385701869
20
55.937316839466533
10
-212.3080261649946
20
55.859949653845995
42
0.19891236737963833
10
-211.56126706188593
20
55.692207948980617
10
-210.17200981199761
20
55.933173285974824
42
0.19891236737964352
10
-209.52536008927859
20
56.342600414697628
10
-209.44799290365808
20
56.452438106721544
42
0.19891236737967952
10
-209.28025119879263
20
57.199197209830345
10
-209.71774854822885
20
59.721536613882932
42
0.19891236737967574
10
-210.12717567695177
20
60.368186336602051
10
-210.23701336897579
20
60.445553522222603
42
0.19891236737962406
10
-210.98377247208444
20
60.613295227087974
10
-212.37302972197281
20
60.372329890093766
42
0.19891236737965615
10
-213.01967944469192
20
59.962902761370941
10
-213.09704663031241
20
59.853065069346947
42
0.19891236737969378
10
-213.2647883351778
20
59.106305966238239
0
LWPOLYLINE
5
133
100
AcDbEntity
8
0
100
AcDbPolyline
90
16
70
1
43
0.0
10
-214.64604298574159
20
94.937372562185658
42
0.19891236737967016
10
-214.23661585701868
20
94.290722839466525
10
-214.12677816499462
20
94.21335565384598
42
0.19891236737963877
10
-213.38001906188595
20
94.045613948980616
10
-211.9907618119976
20
94.286579285974852
42
0.19891236737964463
10
-211.34411208927858
20
94.696006414697649
10
-211.26674490365809
20
94.805844106721565
42
0.19891236737967577
10
-211.09900319879262
20
95.552603209830352
10
-211.53650054822887
20
98.074942613882968
42
0.19891236737966894
10
-211.94592767695178
20
98.721592336602058
10
-212.05576536897581
20
98.798959522222617
42
0.19891236737962284
10
-212.80252447208443
20
98.966701227087981
10
-214.1917817219728
20
98.725735890093773
42
0.19891236737965762
10
-214.83843144469191
20
98.316308761370948
10
-214.91579863031239
20
98.206471069346975
42
0.19891236737969753
10
-215.08354033517779
20
97.459711966238245
0
LWPOLYLINE
5
134
100
AcDbEntity
8
0
100
AcDbPolyline
90
16
70
1
43
0.0
10
-195.87628898574155
20
98.19296656218566
42
0.19891236737967016
10
-195.46686185701867
20
97.546316839466527
10
-195.35702416499458
20
97.468949653845982
42
0.19891236737963877
10
-194.61026506188591
20
97.301207948980618
10
-193.22100781199759
20
97.54217328597484
42
0.19891236737964463
10
-192.57435808927855
20
97.951600414697637
10
-192.49699090365806
20
98.061438106721553
42
0.19891236737967577
10
-192.32924919879258
20
98.80819720983034
10
-192.76674654822884
20
101.33053661388296
42
0.19891236737966894
10
-193.17617367695175
20
101.97718633660205
10
-193.28601136897578
20
102.05455352222261
42
0.19891236737962284
10
-194.03277047208439
20
102.22229522708798
10
-195.42202772197277
20
101.98132989009378
42
0.19891236737965762
10
-196.06867744469187
20
101.57190276137094
10
-196.14604463031239
20
101.46206506934696
42
0.19891236737969753
10
-196.31378633517778
20
100.71530596623823
0
LWPOLYLINE
5
135
100
AcDbEntity
8
0
100
AcDbPolyline
90
16
70
1
43
0.0
10
-240.92850720458455
20
67.00601565360023
42
0.13684465420342151
10
-240.52522364730874
20
67.703839315275957
42
-0.49749650381298682
10
-239.23718670783043
20
68.241574331795064
42
0.17740966255754478
10
-238.22126594046784
20
68.060239842496898
10
-237.66224239251909
20
68.158810776851638
42
0.26080701341243906
10
-236.52737564286869
20
69.085541680088454
42
-0.33416450868790404
10
-234.48353080452787
20
70.338721818264432
42
0.17363600461401868
10
-233.50336529703361
20
70.587828371582276
42
-0.10492987241718468
10
-232.25220406526662
20
71.092828393790356
10
-229.04510388723608
20
71.658326685012042
42
-0.41421356237308143
10
-225.48285190039769
20
69.164010990825474
10
-224.9836133896053
20
66.332688700915142
42
-0.41421356237309587
10
-229.85057084167698
20
59.381953116840407
10
-237.65517228429871
20
58.005791308829934
42
-0.41421356237307888
10
-241.21742427113705
20
60.50010700301651
10
-241.85558132406305
20
64.11927549533651
42
-0.24751551426773843
0
LWPOLYLINE
5
136
100
AcDbEntity
8
0
100
AcDbPolyline
90
16
70
1
43
0.0
10
-124.25447896931708
20
83.892302970709025
42
0.19891236737970383
10
-124.66751126705213
20
83.247949993952801
10
-125.11908912066355
20
80.72809336268827
42
0.19891236737967111
10
-124.95552069989898
20
79.980409064768651
10
-124.87876816713447
20
79.870140988181433
42
0.19891236737963991
10
-124.2344151903783
20
79.457108690446418
10
-122.84652540518964
20
79.208388075762016
42
0.19891236737964835
10
-122.0988411072701
20
79.371956496526536
10
-121.98857303068294
20
79.448709029290981
42
0.19891236737966958
10
-121.57554073294784
20
80.093062006047205
10
-121.12396287933646
20
82.612918637311736
42
0.19891236737967269
10
-121.28753130010099
20
83.360602935231356
10
-121.36428383286551
20
83.470871011818588
42
0.19891236737963203
10
-122.00863680962166
20
83.883903309553602
10
-123.39652659481034
20
84.132623924238004
42
0.1989123673796481
10
-124.1442108927299
20
83.969055503473484
0
LWPOLYLINE
5
137
100
AcDbEntity
8
0
100
AcDbPolyline
90
16
70
1
43
0.0
10
-214.21072220458453
20
52.305759653600283
42
0.13684465420334369
10
-213.80743864730871
20
53.003583315275975
42
-0.49749650381296351
10
-212.51940170783044
20
53.541318331795082
42
0.17740966255756715
10
-211.50348094046788
20
53.359983842496902
10
-210.9444573925191
20
53.458554776851635
42
0.26080701341242429
10
-209.80959064286873
20
54.385285680088472
42
-0.33416450868790104
10
-207.76574580452788
20
55.638465818264436
42
0.17363600461400333
10
-206.78558029703365
20
55.887572371582266
42
-0.10492987241718581
10
-205.53441906526666
20
56.392572393790353
10
-202.32731888723609
20
56.958070685012046
42
-0.4142135623730806
10
-198.76506690039773
20
54.463754990825493
10
-198.2658283896053
20
51.632432700915146
42
-0.4142135623730977
10
-203.13278584167705
20
44.681697116840404
10
-210.93738728429872
20
43.305535308829938
42
-0.41421356237307888
10
-214.49963927113708
20
45.799851003016514
10
-215.13779632406309
20
49.419019495336521
42
-0.24751551426774349
0
LWPOLYLINE
5
138
100
AcDbEntity
8
0
100
AcDbPolyline
90
16
70
1
43
0.0
10
-126.90936996931708
20
123.07504097070904
42
0.19891236737970383
10
-127.32240226705214
20
122.43068799395282
10
-127.77398012066355
20
119.91083136268828
42
0.19891236737967111
10
-127.61041169989898
20
119.16314706476867
10
-127.53365916713446
20
119.05287898818145
42
0.19891236737963686
10
-126.88930619037831
20
118.63984669044643
10
-125.50141640518964
20
118.39112607576203
42
0.19891236737964962
10
-124.75373210727011
20
118.55469449652657
10
-124.64346403068292
20
118.631447029291
42
0.19891236737966453
10
-124.23043173294785
20
119.27580000604722
10
-123.77885387933645
20
121.79565663731175
42
0.19891236737967269
10
-123.942422300101
20
122.54334093523138
10
-124.01917483286552
20
122.65360901181862
42
0.19891236737963203
10
-124.66352780962167
20
123.06664130955362
10
-126.05141759481035
20
123.315361924238
42
0.1989123673796481
10
-126.79910189272989
20
123.1517935034735
0
LWPOLYLINE
5
139
100
AcDbEntity
8
0
100
AcDbPolyline
90
16
70
1
43
0.0
10
-233.41579198574155
20
91.68177356218564
42
0.19891236737967016
10
-233.00636485701864
20
91.035123839466507
10
-232.89652716499458
20
90.957756653845962
42
0.19891236737963877
10
-232.14976806188591
20
90.790014948980598
10
-230.76051081199756
20
91.030980285974834
42
0.19891236737964463
10
-230.11386108927854
20
91.440407414697631
10
-230.03649390365806
20
91.550245106721547
42
0.19891236737967577
10
-229.86875219879261
20
92.297004209830334
10
-230.30624954822883
20
94.81934361388295
42
0.19891236737966894
10
-230.71567667695174
20
95.46599333660204
10
-230.82551436897577
20
95.543360522222599
42
0.19891236737962284
10
-231.57227347208442
20
95.711102227087963
10
-232.96153072197279
20
95.470136890093755
42
0.19891236737965762
10
-233.60818044469187
20
95.06070976137093
10
-233.68554763031239
20
94.950872069346957
42
0.19891236737969753
10
-233.85328933517775
20
94.204112966238228
0
LWPOLYLINE
5
140
100
AcDbEntity
8
0
100
AcDbPolyline
90
16
70
1
43
0.0
10
-246.05626598574156
20
108.82372856218565
42
0.19891236737966594
10
-245.64683885701868
20
108.17707883946653
10
-245.53700116499459
20
108.09971165384597
42
0.19891236737963544
10
-244.79024206188595
20
107.93196994898061
10
-243.4009848119976
20
108.17293528597482
42
0.19891236737964166
10
-242.75433508927858
20
108.58236241469761
10
-242.67696790365807
20
108.69220010672153
42
0.19891236737967952
10
-242.50922619879262
20
109.43895920983033
10
-242.94672354822887
20
111.96129861388295
42
0.19891236737966894
10
-243.35615067695176
20
112.60794833660205
10
-243.46598836897581
20
112.6853155222226
42
0.19891236737962284
10
-244.21274747208443
20
112.85305722708797
10
-245.6020047219728
20
112.61209189009377
42
0.19891236737965468
10
-246.24865444469191
20
112.20266476137093
10
-246.3260216303124
20
112.09282706934695
42
0.19891236737969753
10
-246.49376333517779
20
111.34606796623822
0
LWPOLYLINE
5
141
100
AcDbEntity
8
0
100
AcDbPolyline
90
16
70
1
43
0.0
10
-86.289090120663559
20
54.415974362688274
42
0.19891236737967111
10
-86.125521699898982
20
53.668290064768641
10
-86.048769167134481
20
53.55802198818143
42
0.19891236737963991
10
-85.404416190378299
20
53.144989690446415
10
-84.016526405189637
20
52.896269075762007
42
0.19891236737964835
10
-83.268842107270103
20
53.059837496526534
10
-83.158574030682942
20
53.136590029290971
42
0.19891236737966958
10
-82.745541732947856
20
53.78094300604721
10
-82.293963879336445
20
56.300799637311741
42
0.19891236737967111
10
-82.457532300101008
20
57.048483935231367
10
-82.534284832865524
20
57.158752011818585
42
0.19891236737963389
10
-83.178637809621677
20
57.5717843095536
10
-84.566527594810339
20
57.820504924237987
42
0.1989123673796481
10
-85.314211892729901
20
57.656936503473474
10
-85.424479969317062
20
57.580183970709029
42
0.1989123673797121
10
-85.837512267052148
20
56.935830993952791
0
LWPOLYLINE
5
142
100
AcDbEntity
8
0
100
AcDbPolyline
90
16
70
1
43
0.0
10
-146.6335961515822
20
80.541428158753888
42
0.13684458693363927
10
-146.0159636911846
20
81.059236056582733
42
-0.49749616497360583
10
-144.6216892231966
20
81.124006517385766
42
0.17740962621327921
10
-143.72905615803398
20
80.606142631957326
10
-143.17003326231526
20
80.507571812608376
42
0.26080703574130704
10
-141.78664663257541
20
80.990266809369615
42
-0.33416451074340958
10
-139.43744789618765
20
81.468835023306227
42
0.17363594226406254
10
-138.43119448729041
20
81.367682254989234
42
-0.10492983049329183
10
-137.08276785356276
20
81.414304575489197
10
-133.87566767553221
20
80.848806284267454
42
-0.41421356237307777
10
-131.38135198134546
20
77.286554297429277
10
-131.88059049213794
20
74.455232007518944
42
-0.41421356237309365
10
-138.83132607621278
20
69.588274555447356
10
-146.63592751883448
20
70.964436363457736
42
-0.41421356237307949
10
-149.13024321302129
20
74.526688350295927
10
-148.49208616009525
20
78.145856842615956
42
-0.2475156950495436
0
LWPOLYLINE
5
143
100
AcDbEntity
8
0
100
AcDbPolyline
90
16
70
1
43
0.0
10
-100.60745189618763
20
55.156717023306214
42
0.17363594226409226
10
-99.601198487290389
20
55.0555642549892
42
-0.10492983049328947
10
-98.252771853562777
20
55.102186575489178
10
-95.045671675532219
20
54.536688284267456
42
-0.41421356237307777
10
-92.551355981345452
20
50.974436297429271
10
-93.050594492137932
20
48.143114007518946
42
-0.41421356237309281
10
-100.00133007621275
20
43.276156555447358
10
-107.8059315188345
20
44.652318363457738
42
-0.41421356237307949
10
-110.30024721302128
20
48.214570350295929
10
-109.66209016009526
20
51.833738842615958
42
-0.24751569504954196
10
-107.80360015158222
20
54.229310158753883
42
0.13684458693364662
10
-107.18596769118462
20
54.747118056582721
42
-0.49749616497361304
10
-105.79169322319659
20
54.811888517385782
42
0.17740962621330089
10
-104.89906015803396
20
54.294024631957342
10
-104.34003726231529
20
54.195453812608378
42
0.26080703574132391
10
-102.95665063257546
20
54.678148809369588
42
-0.3341645107434158
0
CIRCLE
5
144
100
AcDbEntity
8
0
100
AcDbCircle
10
-66.202500000000001
20
47.100000000000001
30
0
40
1.1000000000000032
210
0
220
0
230
1
0
LWPOLYLINE
5
145
100
AcDbEntity
8
0
100
AcDbPolyline
90
16
70
1
43
0.0
10
-69.431141896187626
20
107.63012702330622
42
0.17363594226408857
10
-68.424888487290389
20
107.52897425498918
42
-0.10492983049329081
10
-67.076461853562762
20
107.57559657548917
10
-63.869361675532204
20
107.01009828426747
42
-0.41421356237307777
10
-61.375045981345437
20
103.44784629742929
10
-61.874284492137939
20
100.61652400751896
42
-0.41421356237309287
10
-68.825020076212752
20
95.749566555447387
10
-76.629621518834469
20
97.125728363457782
42
-0.4142135623730796
10
-79.12393721302125
20
100.68798035029594
10
-78.48578016009526
20
104.30714884261597
42
-0.24751569504954229
10
-76.627290151582187
20
106.70272015875391
42
0.13684458693363905
10
-76.0096576911846
20
107.22052805658276
42
-0.4974961649736061
10
-74.615383223196574
20
107.28529851738578
42
0.17740962621328152
10
-73.722750158033961
20
106.76743463195734
10
-73.163727262315277
20
106.66886381260838
42
0.26080703574133085
10
-71.780340632575445
20
107.1515588093696
42
-0.33416451074341569
0
LWPOLYLINE
5
146
100
AcDbEntity
8
0
100
AcDbPolyline
90
16
70
1
43
0.0
10
-145.30615315158221
20
60.950060158753885
42
0.13684458693365997
10
-144.68852069118464
20
61.467868056582724
42
-0.49749616497361204
10
-143.29424622319661
20
61.532638517385784
42
0.17740962621329512
10
-142.40161315803397
20
61.014774631957351
10
-141.84259026231527
20
60.91620381260838
42
0.26080703574132807
10
-140.45920363257548
20
61.39889880936957
42
-0.33416451074341258
10
-138.11000489618766
20
61.877467023306217
42
0.17363594226410614
10
-137.10375148729042
20
61.776314254989217
42
-0.10492983049329553
10
-135.75532485356274
20
61.822936575489194
10
-132.5482246755322
20
61.257438284267458
42
-0.41421356237307777
10
-130.05390898134544
20
57.695186297429274
10
-130.5531474921379
20
54.863864007518956
42
-0.41421356237309365
10
-137.50388307621276
20
49.99690655544736
10
-145.30848451883446
20
51.373068363457747
42
-0.41421356237307949
10
-147.80280021302127
20
54.935320350295939
10
-147.16464316009524
20
58.554488842615967
42
-0.24751569504954066
0
LWPOLYLINE
5
147
100
AcDbEntity
8
0
100
AcDbPolyline
90
16
70
1
43
0.0
10
-127.88232015158222
20
77.181056158753876
42
0.13684458693364995
10
-127.26468769118462
20
77.698864056582721
42
-0.49749616497360749
10
-125.87041322319661
20
77.763634517385782
42
0.17740962621329512
10
-124.97778015803397
20
77.245770631957356
10
-124.41875726231528
20
77.147199812608378
42
0.26080703574132391
10
-123.03537063257542
20
77.629894809369588
42
-0.33416451074341358
10
-120.68617189618763
20
78.108463023306214
42
0.17363594226409423
10
-119.67991848729041
20
78.007310254989221
42
-0.10492983049329171
10
-118.33149185356275
20
78.053932575489199
10
-115.12439167553222
20
77.488434284267456
42
-0.41421356237307777
10
-112.63007598134544
20
73.926182297429278
10
-113.12931449213792
20
71.094860007518946
42
-0.41421356237309281
10
-120.08005007621276
20
66.227902555447358
10
-127.88465151883449
20
67.604064363457738
42
-0.41421356237307949
10
-130.37896721302127
20
71.166316350295929
10
-129.74081016009524
20
74.785484842615958
42
-0.2475156950495403
0
CIRCLE
5
148
100
AcDbEntity
8
0
100
AcDbCircle
10
-145.45249999999999
20
40.280000000000001
30
0
40
1.0999999999999943
210
0
220
0
230
1
0
LWPOLYLINE
5
149
100
AcDbEntity
8
0
100
AcDbPolyline
90
16
70
1
43
0.0
10
-69.328093969317052
20
93.402550970709029
42
0.1989123673797121
10
-69.741126267052138
20
92.758197993952791
10
-70.192704120663535
20
90.238341362688288
42
0.19891236737967269
10
-70.029135699898987
20
89.490657064768655
10
-69.952383167134471
20
89.380388988181423
42
0.19891236737963655
10
-69.308030190378304
20
88.967356690446422
10
-67.920140405189642
20
88.718636075762006
42
0.19891236737964962
10
-67.172456107270108
20
88.882204496526526
10
-67.062188030682933
20
88.958957029290971
42
0.19891236737967097
10
-66.649155732947847
20
89.603310006047224
10
-66.197577879336436
20
92.123166637311741
42
0.19891236737967111
10
-66.361146300100998
20
92.870850935231374
10
-66.437898832865514
20
92.981119011818578
42
0.19891236737963203
10
-67.082251809621667
20
93.394151309553592
10
-68.470141594810343
20
93.642871924237994
42
0.1989123673796481
10
-69.217825892729905
20
93.479303503473474
0
CIRCLE
5
150
100
AcDbEntity
8
0
100
AcDbCircle
10
-155.4025
20
125.62
30
0
40
1.0999999999999943
210
0
220
0
230
1
0
CIRCLE
5
151
100
AcDbEntity
8
0
100
AcDbCircle
10
-255.32250000000002
20
103.62000000000002
30
0
40
1.0999999999999943
210
0
220
0
230
1
0
LWPOLYLINE
5
152
100
AcDbEntity
8
0
100
AcDbPolyline
90
16
70
1
43
0.0
10
-76.151890896187624
20
70.127574023306209
42
0.17363594226408396
10
-75.145637487290387
20
70.026421254989202
42
-0.1049298304932897
10
-73.797210853562774
20
70.073043575489166
10
-70.590110675532216
20
69.507545284267451
42
-0.41421356237307777
10
-68.095794981345449
20
65.945293297429274
10
-68.595033492137944
20
63.113971007518941
42
-0.41421356237309326
10
-75.545769076212764
20
58.247013555447353
10
-83.350370518834481
20
59.623175363457733
42
-0.41421356237307949
10
-85.844686213021276
20
63.185427350295924
10
-85.206529160095258
20
66.804595842615953
42
-0.24751548397695447
10
-83.348041506357447
20
69.200166091015021
42
0.13684484728120885
10
-82.730408590719463
20
69.717975744804306
42
-0.49749709697790634
10
-81.336132568114976
20
69.782746729997669
42
0.17740992807026704
10
-80.443498379955273
20
69.264881494761084
10
-79.884476262315289
20
69.166310812608373
42
0.26080703574132552
10
-78.501089632575429
20
69.649005809369584
42
-0.33416451074341535
0
LWPOLYLINE
5
153
100
AcDbEntity
8
0
100
AcDbPolyline
90
16
70
1
43
0.0
10
-65.75978689618762
20
87.618711023306233
42
0.17363594226408499
10
-64.753533487290383
20
87.517558254989211
42
-0.1049298304932897
10
-63.405106853562756
20
87.564180575489189
10
-60.198006675532213
20
86.998682284267446
42
-0.41421356237307777
10
-57.70369098134546
20
83.436430297429283
10
-58.20292949213794
20
80.605108007518965
42
-0.41421356237309365
10
-65.153665076212761
20
75.738150555447362
10
-72.958266518834478
20
77.114312363457756
42
-0.4142135623730796
10
-75.452582213021273
20
80.676564350295934
10
-74.814425160095269
20
84.295732842615962
42
-0.24751548397695672
10
-72.955937506357415
20
86.691303091015044
42
0.13684484728119531
10
-72.338304590719446
20
87.209112744804315
42
-0.49749709697789307
10
-70.944028568114987
20
87.273883729997692
42
0.17740992807027026
10
-70.051394379955326
20
86.756018494761094
10
-69.492372262315271
20
86.657447812608382
42
0.26080703574134312
10
-68.108985632575454
20
87.140142809369621
42
-0.3341645107434138
0
LWPOLYLINE
5
154
100
AcDbEntity
8
0
100
AcDbPolyline
90
16
70
1
43
0.0
10
-115.14630715158219
20
94.252142158753884
42
0.13684458693365456
10
-114.52867469118461
20
94.769950056582744
42
-0.49749616497360583
10
-113.13440022319659
20
94.83472051738579
42
0.17740962621329096
10
-112.24176715803397
20
94.316856631957364
10
-111.68274426231527
20
94.218285812608372
42
0.26080703574133324
10
-110.29935763257542
20
94.700980809369582
42
-0.33416451074341258
10
-107.95015889618765
20
95.179549023306208
42
0.17363594226411513
10
-106.94390548729038
20
95.078396254989201
42
-0.10492983049328869
10
-105.59547885356278
20
95.125018575489179
10
-102.38837867553222
20
94.55952028426745
42
-0.41421356237307777
10
-99.894062981345456
20
90.997268297429272
10
-100.39330149213795
20
88.165946007518954
42
-0.41421356237309337
10
-107.34403707621277
20
83.29898855544738
10
-115.14863851883449
20
84.675150363457746
42
-0.41421356237307949
10
-117.64295421302128
20
88.237402350295923
10
-117.00479716009525
20
91.856570842615952
42
-0.2475156950495436
0
LWPOLYLINE
5
155
100
AcDbEntity
8
0
100
AcDbPolyline
90
16
70
1
43
0.0
10
-76.830002832865517
20
75.489982011818583
42
0.19891236737963389
10
-77.47435580962167
20
75.903014309553598
10
-78.862245594810346
20
76.151734924237985
42
0.1989123673796481
10
-79.609929892729895
20
75.988166503473465
10
-79.720197969317056
20
75.91141397070902
42
0.1989123673797121
10
-80.133230267052141
20
75.267060993952782
10
-80.584808120663553
20
72.747204362688265
42
0.19891236737967111
10
-80.42123969989899
20
71.999520064768646
10
-80.344487167134474
20
71.889251988181428
42
0.19891236737963991
10
-79.700134190378293
20
71.476219690446413
10
-78.312244405189645
20
71.227499075762012
42
0.19891236737964835
10
-77.564560107270097
20
71.391067496526531
10
-77.45429203068295
20
71.467820029290976
42
0.1989123673796715
10
-77.04125973294785
20
72.1121730060472
10
-76.589681879336439
20
74.632029637311746
42
0.19891236737967111
10
-76.753250300101001
20
75.379713935231365
0
LWPOLYLINE
5
156
100
AcDbEntity
8
0
100
AcDbPolyline
90
16
70
1
43
0.0
10
-105.04036912066356
20
57.77634736268827
42
0.19891236737967111
10
-104.87680069989899
20
57.028663064768644
10
-104.80004816713448
20
56.918394988181433
42
0.19891236737963991
10
-104.15569519037831
20
56.505362690446418
10
-102.76780540518965
20
56.256642075762009
42
0.19891236737964835
10
-102.02012110727011
20
56.420210496526536
10
-101.90985303068294
20
56.496963029290981
42
0.19891236737966453
10
-101.49682073294785
20
57.141316006047205
10
-101.04524287933644
20
59.661172637311743
42
0.19891236737967111
10
-101.20881130010102
20
60.40885693523137
10
-101.28556383286552
20
60.519125011818588
42
0.19891236737963389
10
-101.92991680962167
20
60.932157309553602
10
-103.31780659481035
20
61.18087792423799
42
0.1989123673796481
10
-104.06549089272991
20
61.01730950347347
10
-104.17575896931707
20
60.940556970709032
42
0.1989123673797121
10
-104.58879126705214
20
60.296203993952787
0
LWPOLYLINE
5
157
100
AcDbEntity
8
0
100
AcDbPolyline
90
16
70
1
43
0.0
10
-124.5429682231966
20
58.172262517385789
42
0.17740962621330009
10
-123.65033515803397
20
57.654398631957342
10
-123.09131226231528
20
57.555827812608371
42
0.2608070357413293
10
-121.70792563257544
20
58.038522809369582
42
-0.33416451074341441
10
-119.35872689618763
20
58.517091023306222
42
0.17363594226408788
10
-118.3524734872904
20
58.415938254989214
42
-0.10492983049329183
10
-117.00404685356274
20
58.462560575489192
10
-113.79694667553221
20
57.897062284267449
42
-0.41421356237307777
10
-111.30263098134543
20
54.334810297429271
10
-111.80186949213791
20
51.503488007518939
42
-0.41421356237309281
10
-118.75260507621275
20
46.636530555447351
10
-126.55720651883448
20
48.012692363457738
42
-0.41421356237307949
10
-129.05152221302126
20
51.574944350295922
10
-128.41336516009525
20
55.194112842615951
42
-0.2475156950495371
10
-126.55487515158225
20
57.589684158753855
42
0.13684458693366236
10
-125.93724269118465
20
58.107492056582721
42
-0.49749616497361987
0
LWPOLYLINE
5
158
100
AcDbEntity
8
0
100
AcDbPolyline
90
16
70
1
43
0.0
10
-96.395025151582189
20
90.8917701587539
42
0.13684458693363358
10
-95.777392691184602
20
91.409578056582731
42
-0.49749616497360583
10
-94.38311822319659
20
91.474348517385778
42
0.17740962621324635
10
-93.490485158033962
20
90.956484631957323
10
-92.931462262315264
20
90.857913812608359
42
0.26080703574132341
10
-91.548075632575419
20
91.340608809369584
42
-0.33416451074341258
10
-89.198876896187627
20
91.81917702330621
42
0.17363594226410686
10
-88.19262348729039
20
91.718024254989217
42
-0.10492983049328958
10
-86.844196853562764
20
91.764646575489181
10
-83.63709667553222
20
91.199148284267451
42
-0.41421356237307777
10
-81.142780981345453
20
87.636896297429274
10
-81.642019492137919
20
84.805574007518942
42
-0.41421356237309326
10
-88.592755076212768
20
79.938616555447368
10
-96.397356518834485
20
81.314778363457748
42
-0.41421356237307949
10
-98.89167221302128
20
84.877030350295939
10
-98.253515160095247
20
88.496198842615968
42
-0.2475156950495436
0
CIRCLE
5
159
100
AcDbEntity
8
0
100
AcDbCircle
10
-243.29250000000002
20
47.609999999999999
30
0
40
1.0999999999999943
210
0
220
0
230
1
0
LWPOLYLINE
5
160
100
AcDbEntity
8
0
100
AcDbPolyline
90
16
70
1
43
0.0
10
-101.93489289618762
20
74.748087023306198
42
0.17363594226407456
10
-100.9286394872904
20
74.646934254989205
42
-0.10492983049329081
10
-99.580212853562756
20
74.693556575489183
10
-96.373112675532212
20
74.128058284267453
42
-0.41421356237307777
10
-93.878796981345431
20
70.565806297429276
10
-94.378035492137911
20
67.734484007518944
42
-0.41421356237309365
10
-101.32877107621276
20
62.867526555447355
10
-109.13337251883448
20
64.24368836345775
42
-0.41421356237307949
10
-111.62768821302126
20
67.805940350295927
10
-110.98953116009524
20
71.425108842615955
42
-0.2475156950495403
10
-109.13104115158221
20
73.820680158753873
42
0.13684458693365306
10
-108.51340869118461
20
74.338488056582719
42
-0.49749616497361371
10
-107.1191342231966
20
74.40325851738578
42
0.17740962621329978
10
-106.22650115803395
20
73.885394631957354
10
-105.66747826231529
20
73.786823812608375
42
0.26080703574132391
10
-104.28409163257544
20
74.269518809369572
42
-0.33416451074341685
0
LWPOLYLINE
5
161
100
AcDbEntity
8
0
100
AcDbPolyline
90
16
70
1
43
0.0
10
-81.856172896187616
20
51.796344023306212
42
0.17363594226409146
10
-80.849919487290407
20
51.695191254989219
42
-0.10492983049329081
10
-79.501492853562766
20
51.741813575489203
10
-76.294392675532222
20
51.176315284267453
42
-0.41421356237307777
10
-73.800076981345455
20
47.614063297429269
10
-74.299315492137936
20
44.78274100751895
42
-0.4142135623730937
10
-81.25005107621277
20
39.915783555447362
10
-89.054652518834487
20
41.291945363457742
42
-0.41421356237307949
10
-91.548968213021283
20
44.854197350295934
10
-90.91081116009525
20
48.473365842615962
42
-0.24751569504954196
10
-89.052321151582206
20
50.86893715875388
42
0.13684458693365065
10
-88.434688691184604
20
51.38674505658274
42
-0.49749616497361637
10
-87.040414223196564
20
51.451515517385772
42
0.17740962621330095
10
-86.147781158033922
20
50.933651631957332
10
-85.588758262315281
20
50.835080812608375
42
0.2608070357413293
10
-84.205371632575464
20
51.317775809369586
42
-0.3341645107434158
0
CIRCLE
5
162
100
AcDbEntity
8
0
100
AcDbCircle
10
-55.092500000000008
20
103.43000000000002
30
0
40
1.1000000000000032
210
0
220
0
230
1
0
CIRCLE
5
163
100
AcDbEntity
8
0
100
AcDbCircle
10
-165.65250000000003
20
40.350000000000001
30
0
40
1.0999999999999943
210
0
220
0
230
1
0
LWPOLYLINE
5
164
100
AcDbEntity
8
0
100
AcDbPolyline
90
33
70
1
43
0.0
10
-149.47335341500849
20
35.167970791481558
42
0.41421356237309337
10
-147.9773623706441
20
33.663972521807871
10
-62.480468948913526
20
33.435774079344945
42
0.36472608505366028
10
-57.543084803901621
20
37.567515406228402
10
-44.951756225991062
20
108.97649038814225
42
0.41417319935882457
10
-49.006875559178624
20
114.76865032185998
10
-154.65004858011034
20
133.4114031852223
42
0.087109998276199252
10
-156.37912734441795
20
133.41294104074302
10
-260.17178408297775
20
115.28706496230032
42
0.41469428450896351
10
-264.23566352053467
20
109.49336715071215
10
-251.6399085734358
20
38.059290876925687
42
0.36321475213848126
10
-246.72921518339564
20
33.927549572391925
10
-163.20605516475948
20
33.704619191380097
42
0.41417740559768362
10
-161.70205740075548
20
35.200425063638541
10
-161.65663240468746
20
51.467011274455288
42
0.41421356237318557
10
-161.88598922756438
20
51.697652657992144
10
-163.10103815178013
20
51.701045723500158
42
-0.41339588652804904
10
-163.33039587145015
20
51.931044826707044
10
-163.33039587145021
20
57.847519458898816
42
-0.41503171125876137
10
-161.82620708668952
20
59.347513610248143
10
-156.33097567606654
20
59.332167989354829
42
-0.41421356237310375
10
-154.83517030947783
20
57.827985053244888
10
-154.84557701390679
20
54.101368225116595
42
0.41503171125872235
10
-154.6155779106999
20
53.870725944786635
10
-153.69999656453729
20
53.870725944786628
42
-0.41503171125874572
10
-152.20000241318795
20
52.366537160026027
10
-152.21255745235123
20
47.870606623801244
42
0.41421350280889013
10
-151.98320067624795
20
47.639965240395014
10
-151.2501449510973
20
47.63791800823445
10
-150.9430497853653
20
47.637918008234223
42
-0.4150317708572972
10
-149.44305563486785
20
46.13372891842814
10
-149.46461784950253
20
38.412911910193927
10
-149.46629359018431
20
37.813006770069947
0
ENDSEC
0
SECTION
2
OBJECTS
0
DICTIONARY
5
C
100
AcDbDictionary
3
ACAD_GROUP
350
D
3
ACAD_MLINESTYLE
350
17
0
DICTIONARY
5
D
100
AcDbDictionary
0
DICTIONARY
5
1A
330
C
100
AcDbDictionary
0
DICTIONARY
5
17
100
AcDbDictionary
0
ENDSEC
0
EOF
