0
SECTION
2
HEADER
9
$INSUNITS
70
4
9
$ACADVER
1
AC1014
9
$HANDSEED
5
FFFF
0
ENDSEC
0
SECTION
2
TABLES
0
TABLE
2
VPORT
5
8
100
AcDbSymbolTable
0
ENDTAB
0
TABLE
2
LTYPE
5
5
100
AcDbSymbolTable
0
LTYPE
5
14
100
AcDbSymbolTableRecord
100
AcDbLinetypeTableRecord
2
BYBLOCK
70
0
0
LTYPE
5
15
100
AcDbSymbolTableRecord
100
AcDbLinetypeTableRecord
2
BYLAYER
70
0
0
LTYPE
5
16
100
AcDbSymbolTableRecord
100
AcDbLinetypeTableRecord
2
DASHED
70
0
3
Dashed __ __ __ __ __ __ __ __ __ __ __ __ __ _
72
65
73
2
40
0.75
49
0.5
74
0
49
-0.25
74
0
0
ENDTAB
0
TABLE
2
LAYER
5
2
100
AcDbSymbolTable
70
3
0
LAYER
5
50
100
AcDbSymbolTableRecord
100
AcDbLayerTableRecord
2
1
70
0
62
7
6
DASHED
0
LAYER
5
51
100
AcDbSymbolTableRecord
100
AcDbLayerTableRecord
2
0
70
0
62
7
6
CONTINUOUS
0
ENDTAB
0
TABLE
2
STYLE
5
3
100
AcDbSymbolTable
70
1
0
STYLE
5
11
100
AcDbSymbolTableRecord
100
AcDbTextStyleTableRecord
2
STANDARD
70
0
0
ENDTAB
0
TABLE
2
VIEW
5
6
100
AcDbSymbolTable
70
0
0
ENDTAB
0
TABLE
2
UCS
5
7
100
AcDbSymbolTable
70
0
0
ENDTAB
0
TABLE
2
APPID
5
9
100
AcDbSymbolTable
70
2
0
APPID
5
12
100
AcDbSymbolTableRecord
100
AcDbRegAppTableRecord
2
ACAD
70
0
0
ENDTAB
0
TABLE
2
DIMSTYLE
5
A
100
AcDbSymbolTable
70
1
0
ENDTAB
0
TABLE
2
BLOCK_RECORD
5
1
100
AcDbSymbolTable
70
1
0
BLOCK_RECORD
5
1F
100
AcDbSymbolTableRecord
100
AcDbBlockTableRecord
2
*MODEL_SPACE
0
BLOCK_RECORD
5
1B
100
AcDbSymbolTableRecord
100
AcDbBlockTableRecord
2
*PAPER_SPACE
0
ENDTAB
0
ENDSEC
0
SECTION
2
BLOCKS
0
BLOCK
5
20
100
AcDbEntity
100
AcDbBlockBegin
2
*MODEL_SPACE
0
ENDBLK
5
21
100
AcDbEntity
100
AcDbBlockEnd
0
BLOCK
5
1C
100
AcDbEntity
100
AcDbBlockBegin
2
*PAPER_SPACE
0
ENDBLK
5
1D
100
AcDbEntity
100
AcDbBlockEnd
0
ENDSEC
0
SECTION
2
ENTITIES
0
CIRCLE
5
100
100
AcDbEntity
8
0
100
AcDbCircle
10
-155.4025
20
125.62000100000004
30
0
40
1.0999999999999943
210
0
220
0
230
1
0
CIRCLE
5
101
100
AcDbEntity
8
0
100
AcDbCircle
10
-66.202500999999984
20
47.100001000000013
30
0
40
1.1000000000000032
210
0
220
0
230
1
0
CIRCLE
5
102
100
AcDbEntity
8
0
100
AcDbCircle
10
-243.29250000000005
20
47.609999999999999
30
0
40
1.0999999999999943
210
0
220
0
230
1
0
CIRCLE
5
103
100
AcDbEntity
8
0
100
AcDbCircle
10
-255.32249900000008
20
103.62000000000002
30
0
40
1.0999999999999943
210
0
220
0
230
1
0
CIRCLE
5
104
100
AcDbEntity
8
0
100
AcDbCircle
10
-145.45250000000001
20
40.280001000000006
30
0
40
1.0999999999999943
210
0
220
0
230
1
0
CIRCLE
5
105
100
AcDbEntity
8
0
100
AcDbCircle
10
-165.65250100000003
20
40.350001000000013
30
0
40
1.0999999999999943
210
0
220
0
230
1
0
CIRCLE
5
106
100
AcDbEntity
8
0
100
AcDbCircle
10
-55.092500999999992
20
103.43000100000003
30
0
40
1.1000000000000032
210
0
220
0
230
1
0
LWPOLYLINE
5
107
100
AcDbEntity
8
0
100
AcDbPolyline
90
10
70
1
43
0.0
10
-154.65004858011034
20
133.41140318522227
42
0.087109998276209508
10
-156.37912734441795
20
133.41294104074302
10
-260.17178408297775
20
115.28706496230036
42
0.41469428450896895
10
-264.23566352053467
20
109.49336715071213
10
-251.63990857343578
20
38.059290876925687
42
0.3632147521384767
10
-246.72921518339564
20
33.927549572391946
10
-62.480468948913526
20
33.435774079344952
42
0.36472608505365844
10
-57.543084803901621
20
37.567515406228402
10
-44.951756225991069
20
108.97649038814225
42
0.41417319935882568
10
-49.006875559178624
20
114.76865032185999
0
LWPOLYLINE
5
108
100
AcDbEntity
8
0
100
AcDbPolyline
90
8
70
1
43
0.0
10
-199.85304461116652
20
106.67314182349389
10
-205.76189111116656
20
105.63125282349392
42
-0.41421356237307272
10
-206.34111907650609
20
106.03683261116655
10
-208.77219357650608
20
119.82414111116655
42
-0.41421356237312579
10
-208.36661378883349
20
120.40336907650612
10
-202.45776728883342
20
121.44525817650609
42
-0.41421356237312396
10
-201.8785393234939
20
121.03967838883347
10
-199.44746482469503
20
107.25236979564562
42
-0.41421356642508789
0
LWPOLYLINE
5
109
100
AcDbEntity
8
0
100
AcDbPolyline
90
8
70
1
43
0.0
10
-202.27359781116655
20
85.887029523493908
10
-215.07609851116655
20
83.629603223493916
42
-0.41421356237309503
10
-215.6553264765061
20
84.035183011166552
10
-217.91275277650612
20
96.837683711166562
42
-0.41421356237303175
10
-217.50717298883345
20
97.416911676506132
10
-204.70467228883342
20
99.674337976506081
42
-0.41421356237307272
10
-204.12544432349389
20
99.268758188833473
10
-201.86801802349385
20
86.466257488833492
42
-0.4142135623730987
0
LWPOLYLINE
5
110
100
AcDbEntity
8
0
100
AcDbPolyline
90
8
70
1
43
0.0
10
-208.34589391116654
20
65.472442923493915
10
-221.14839461116657
20
63.215016623493895
42
-0.4142135623730489
10
-221.72762257650612
20
63.620596411166545
10
-223.98504887650608
20
76.423097111166541
42
-0.41421356237309415
10
-223.57946908883349
20
77.002325076506125
10
-210.7769683888335
20
79.259751376506131
42
-0.41421356237308149
10
-210.19774042349388
20
78.854171588833481
10
-207.94031412349392
20
66.051670888833485
42
-0.41421356237317553
0
LWPOLYLINE
5
111
100
AcDbEntity
8
0
100
AcDbPolyline
90
8
70
1
43
0.0
10
-194.96889019999998
20
48.99500590000001
10
-197.22631649240594
20
61.797506701339046
42
-0.41421350873637569
10
-196.82073668883345
20
62.376734576506124
10
-184.01823598883345
20
64.63416087650613
42
-0.41421356237310197
10
-183.43900802349393
20
64.228581088833479
10
-181.18158172349388
20
51.426080388833469
42
-0.41421356237310109
10
-181.58716151116653
20
50.846852423493907
10
-194.38966220681209
20
48.58942609879886
42
-0.41421355832110407
0
LWPOLYLINE
5
112
100
AcDbEntity
8
0
100
AcDbPolyline
90
8
70
1
43
0.0
10
-119.19462868883346
20
107.3521875234939
10
-131.99712938883346
20
109.6096138234939
42
-0.41421356237309503
10
-132.40270917650611
20
110.18884178883347
10
-130.14528287530493
20
122.99134249564561
42
-0.41421355832104079
10
-129.56605491116653
20
123.3969222765061
10
-116.76355421116654
20
121.13949597650611
42
-0.41421356237309503
10
-116.35797442349387
20
120.56026801116656
10
-118.61540072349388
20
107.75776731116653
42
-0.41421356237311552
0
LWPOLYLINE
5
113
100
AcDbEntity
8
0
100
AcDbPolyline
90
8
70
1
43
0.0
10
-116.43033038883345
20
68.177013323493895
10
-129.23283108883345
20
70.434439623493901
42
-0.41421350873640156
10
-129.63841089240594
20
71.013667498660965
10
-127.38098457530491
20
83.81616829564561
42
-0.41421355832107509
10
-126.80175661116651
20
84.221748076506117
10
-113.99925591116653
20
81.964321776506097
42
-0.4142135623730866
10
-113.59367612349389
20
81.385093811166556
10
-115.8511024234939
20
68.582593111166545
42
-0.41421356237306434
0
LWPOLYLINE
5
114
100
AcDbEntity
8
0
100
AcDbPolyline
90
8
70
1
43
0.0
10
-96.287593399999992
20
45.281428300000002
10
-109.09009418883343
20
47.538854623493911
42
-0.41421356237309082
10
-109.49567397650608
20
48.118082588833467
10
-107.23824767650611
20
60.92058328883347
42
-0.41421350873641088
10
-106.65901980133901
20
61.326163092405949
10
-93.856519011166526
20
59.0687367765061
42
-0.41421350873645552
10
-93.450939207594047
20
58.489508901339036
10
-95.708365517101015
20
45.687008103015366
42
-0.41421350468438661
0
LWPOLYLINE
5
115
100
AcDbEntity
8
0
100
AcDbPolyline
90
8
70
1
43
0.0
10
-61.530716388833454
20
77.840607123493896
10
-74.333217088833464
20
80.098033423493916
42
-0.41421356237310197
10
-74.7387968765061
20
80.677261388833472
10
-72.48137057650608
20
93.479762088833454
42
-0.41421356237307966
10
-71.902142611166525
20
93.885341876506089
10
-59.099641911166529
20
91.627915576506098
42
-0.41421356237307877
10
-58.694062123493886
20
91.048687611166542
10
-60.951488423493892
20
78.246186911166532
42
-0.41421356237310619
0
LWPOLYLINE
5
116
100
AcDbEntity
8
0
100
AcDbPolyline
90
8
70
1
43
0.0
10
-71.873934588833464
20
60.320518523493902
10
-84.676435288833446
20
62.577944823493894
42
-0.41421356237308393
10
-85.082015076506082
20
63.157172788833478
10
-82.82458877650609
20
75.959673488833474
42
-0.41421356237307122
10
-82.245360811166535
20
76.36525327650611
10
-69.442860111166524
20
74.107826976506118
42
-0.41421356237308299
10
-69.037280323493889
20
73.528599011166534
10
-71.294706623493894
20
60.726098311166538
42
-0.41421356237308987
0
LWPOLYLINE
5
117
100
AcDbEntity
8
0
100
AcDbPolyline
90
8
70
1
43
0.0
10
-110.87782319999999
20
67.705669700000016
10
-108.62039687530491
20
80.508170495645601
42
-0.41421355832107509
10
-108.04116891116651
20
80.913750276506121
10
-95.238668211166527
20
78.656323976506116
42
-0.4142135087363904
10
-94.833088407594047
20
78.077096101339038
10
-97.090514723493882
20
65.274595311166536
42
-0.41421356237307033
10
-97.669742688833452
20
64.8690155234939
10
-110.47224339698462
20
67.126441817100996
42
-0.41421350468439933
0
LWPOLYLINE
5
118
100
AcDbEntity
8
0
100
AcDbPolyline
90
8
70
1
43
0.0
10
-135.19091808883346
20
71.485011123493905
10
-147.99341878883348
20
73.742437423493925
42
-0.41421350873644613
10
-148.39899859240595
20
74.321665298660974
10
-146.14157227530495
20
87.124166095645592
42
-0.41421355832110224
10
-145.56234431116653
20
87.529745876506112
10
-132.75984360435439
20
85.272319575304948
42
-0.41421350468438084
10
-132.35426380759404
20
84.693091701339029
10
-134.61169012349387
20
71.890590911166541
42
-0.41421356237310109
0
LWPOLYLINE
5
119
100
AcDbEntity
8
0
100
AcDbPolyline
90
8
70
1
43
0.0
10
-110.71117269999999
20
106.87175190000002
10
-116.62001918883345
20
107.91364092349386
42
-0.41421356237307094
10
-117.0255989765061
20
108.49286888883347
10
-114.59452447650608
20
122.28017748883346
42
-0.41421356642509838
10
-114.01529650435441
20
122.68575727530492
10
-108.10645001116654
20
121.64386817650615
42
-0.41421356237307272
10
-107.70087022349388
20
121.06464021116653
10
-110.13194469879885
20
107.27733170681213
42
-0.4142135664250981
0
LWPOLYLINE
5
120
100
AcDbEntity
8
0
100
AcDbPolyline
90
8
70
1
43
0.0
10
-162.82657380000001
20
54.154850200000013
10
-175.62907460133908
20
51.897423907594067
42
-0.41421350468445628
10
-176.20830247530492
20
52.303003704354431
10
-178.46572879240597
20
65.105504501339041
42
-0.41421350468444273
10
-178.06014899564559
20
65.684732375304947
10
-165.25764828883348
20
67.942158676506125
42
-0.41421356237307638
10
-164.67842032349387
20
67.536578888833475
10
-162.42099398289898
20
54.734078103015378
42
-0.41421350468443963
0
LWPOLYLINE
5
121
100
AcDbEntity
8
0
100
AcDbPolyline
90
8
70
1
43
0.0
10
-227.10648161116654
20
62.164445123493905
10
-239.90898231116657
20
59.907018823493914
42
-0.41421355832108059
10
-240.48821027530491
20
60.312598604354413
10
-242.74563657650612
20
73.115099311166546
42
-0.41421356237309415
10
-242.34005678883349
20
73.694327276506129
10
-229.53755608883344
20
75.951753576506107
42
-0.41421356237307877
10
-228.95832812349391
20
75.546173788833485
10
-226.70090182349389
20
62.743673088833482
42
-0.41421356237307361
0
LWPOLYLINE
5
122
100
AcDbEntity
8
0
100
AcDbPolyline
90
8
70
1
43
0.0
10
-183.5130101
20
89.195027300000021
10
-196.31551081116652
20
86.93760102349394
42
-0.41421356237309326
10
-196.8947387765061
20
87.343180811166548
10
-199.15216507650609
20
100.14568151116656
42
-0.41421356237308482
10
-198.74658528883347
20
100.72490947650613
10
-185.94408458883345
20
102.98233577650612
42
-0.41421355832106943
10
-185.36485662469505
20
102.57675599564563
10
-183.10743028289897
20
89.774255203015372
42
-0.41421350468439838
0
LWPOLYLINE
5
123
100
AcDbEntity
8
0
100
AcDbPolyline
90
8
70
1
43
0.0
10
-233.72247711116654
20
99.68562052349391
10
-246.52497781116651
20
97.428194223493918
42
-0.41421356237309503
10
-247.10420577650606
20
97.833774011166554
10
-249.36163209240596
20
110.63627480133904
42
-0.41421350873640306
10
-248.95605228883343
20
111.21550267650612
10
-236.15355158883347
20
113.47292897650611
42
-0.41421356237309503
10
-235.57432362349391
20
113.06734918883348
10
-233.31689732349389
20
100.26484848883348
42
-0.41421356237314627
0
LWPOLYLINE
5
124
100
AcDbEntity
8
0
100
AcDbPolyline
90
8
70
1
43
0.0
10
-176.33977471116651
20
110.81916572349391
10
-182.24862121116655
20
109.77727672349388
42
-0.41421355832106282
10
-182.82784917530492
20
110.18285650435443
10
-185.2589236765061
20
123.97016501116654
42
-0.41421356237312579
10
-184.85334388883348
20
124.54939297650611
10
-178.94449738883344
20
125.5912820765061
42
-0.41421356237308482
10
-178.36526942349388
20
125.18570228883348
10
-175.93419492349392
20
111.39839368883347
42
-0.41421356237308116
0
LWPOLYLINE
5
125
100
AcDbEntity
8
0
100
AcDbPolyline
90
8
70
1
43
0.0
10
-221.03418551116653
20
82.579031723493898
10
-233.83668621116655
20
80.321605423493935
42
-0.41421356237312396
10
-234.41591417650608
20
80.727185211166557
10
-236.67334047650604
20
93.529685911166567
42
-0.41421356237310347
10
-236.26776068883342
20
94.108913876506108
10
-223.46525998883345
20
96.366340176506085
42
-0.41421356237307272
10
-222.8860320234939
20
95.960760388833478
10
-220.62860572349391
20
83.158259688833468
42
-0.41421356237314627
0
LWPOLYLINE
5
126
100
AcDbEntity
8
0
100
AcDbPolyline
90
8
70
1
43
0.0
10
-189.58530621116651
20
68.780440723493911
10
-202.38780691116654
20
66.523014423493919
42
-0.41421355832110196
10
-202.96703487530493
20
66.928594204354411
10
-205.22446117650614
20
79.731094911166551
42
-0.41421356237314294
10
-204.81888138883346
20
80.31032287650612
10
-192.01638068883346
20
82.567749176506112
42
-0.41421356237307638
10
-191.43715272349391
20
82.162169388833476
10
-189.17972642349386
20
69.35966868883348
42
-0.41421356237314721
0
LWPOLYLINE
5
127
100
AcDbEntity
8
0
100
AcDbPolyline
90
8
70
1
43
0.0
10
-200.34774920000001
20
47.538854600000008
10
-213.1502499111665
20
45.28142832349392
42
-0.41421355832110196
10
-213.72947787530492
20
45.687008104354412
10
-215.98690417650607
20
58.489508811166544
42
-0.41421356237310109
10
-215.58132438883345
20
59.068736776506114
10
-202.77882368883351
20
61.326163076506084
42
-0.41421356237309326
10
-202.19959572349393
20
60.920583288833477
10
-199.94216939879885
20
48.118082593187879
42
-0.41421355832115531
0
LWPOLYLINE
5
128
100
AcDbEntity
8
0
100
AcDbPolyline
90
8
70
1
43
0.0
10
-134.22444258883345
20
111.01777582349391
10
-140.13328908883346
20
112.05966482349393
42
-0.4142135623730625
10
-140.53886887650609
20
112.63889278883347
10
-138.10779437650612
20
126.42620138883345
42
-0.41421356237307094
10
-137.52856641116654
20
126.83178117650611
10
-131.61971991116653
20
125.78989207650611
42
-0.41421356237308482
10
-131.21414012349391
20
125.21066411116657
10
-133.6452146234939
20
111.42335561116654
42
-0.41421356237308299
0
LWPOLYLINE
5
129
100
AcDbEntity
8
0
100
AcDbPolyline
90
8
70
1
43
0.0
10
-103.74203868883345
20
85.283602123493907
10
-116.54453938883347
20
87.541028423493913
42
-0.41421356237311735
10
-116.95011917650609
20
88.120256388833482
10
-114.69269287650607
20
100.92275708883348
42
-0.4142135623730866
10
-114.11346491116653
20
101.3283368765061
10
-101.31096421116652
20
99.070910576506108
42
-0.41421356237311552
10
-100.9053844234939
20
98.491682611166539
10
-103.16281072349391
20
85.689181911166543
42
-0.41421356237309687
0
LWPOLYLINE
5
130
100
AcDbEntity
8
0
100
AcDbPolyline
90
8
70
1
43
0.0
10
-128.25626169999998
20
51.42608030000001
10
-125.99883537530491
20
64.228581095645609
42
-0.41421350468439627
10
-125.41960750133903
20
64.634160892405944
10
-112.61710670435441
20
62.376734575304944
42
-0.41421350468441764
10
-112.21152690759403
20
61.797506701339032
10
-114.46895322349388
20
48.995005911166544
42
-0.41421356237309415
10
-115.04818118883344
20
48.589426123493908
10
-127.85068189698464
20
50.846852417100976
42
-0.41421350468442403
0
LWPOLYLINE
5
131
100
AcDbEntity
8
0
100
AcDbPolyline
90
8
70
1
43
0.0
10
-78.466019499999987
20
100.67834810000001
10
-76.208593175304927
20
113.48084889564561
42
-0.41421350468440132
10
-75.629365301339021
20
113.88642869240593
10
-62.826864504354404
20
111.62900237530494
42
-0.41421350468439716
10
-62.421284707594047
20
111.04977450133903
10
-64.678711023493889
20
98.247273711166542
42
-0.41421356237309503
10
-65.257938988833445
20
97.841693923493892
10
-78.060439690172501
20
100.09912021589983
42
-0.41421350873641155
0
LWPOLYLINE
5
132
100
AcDbEntity
8
0
100
AcDbPolyline
90
8
70
1
43
0.0
10
-77.527005888833457
20
41.973430623493897
10
-90.329506588833453
20
44.230856923493889
42
-0.41421356237308393
10
-90.735086376506075
20
44.810084888833472
10
-88.477660076506083
20
57.612585588833475
42
-0.41421356237309415
10
-87.898432111166528
20
58.018165376506104
10
-75.095931411166532
20
55.760739076506113
42
-0.41421356237309925
10
-74.690351623493882
20
55.181511111166543
10
-76.947777923493874
20
42.37901041116654
42
-0.41421356237308393
0
LWPOLYLINE
5
133
100
AcDbEntity
8
0
100
AcDbPolyline
90
8
70
1
43
0.0
10
-84.981450999999993
20
81.975604300000015
10
-97.783951788833448
20
84.233030623493903
42
-0.41421356237309503
10
-98.189531576506084
20
84.812258588833473
10
-95.932105276506107
20
97.614759288833454
42
-0.41421356237308299
10
-95.352877311166523
20
98.020339076506119
10
-82.550376604354398
20
95.76291277530494
42
-0.41421355832111428
10
-82.144796823493891
20
95.183684811166529
10
-84.402223117100988
20
82.381184103015372
42
-0.41421350468439838
0
LWPOLYLINE
5
134
100
AcDbEntity
8
0
100
AcDbPolyline
90
8
70
1
43
0.0
10
-133.8087688
20
51.897423900000007
10
-146.61126958883347
20
54.154850223493909
42
-0.4142135623730685
10
-147.01684937650609
20
54.734078188833479
10
-144.75942307530494
20
67.536578895645604
42
-0.41421350468438084
10
-144.18019520133905
20
67.942158692405954
10
-131.37769440435443
20
65.684732375304947
42
-0.41421350468440649
10
-130.97211460759405
20
65.105504501339027
10
-133.22954091710099
20
52.303003703015378
42
-0.41421350468439511
0
LWPOLYLINE
5
135
100
AcDbEntity
8
0
100
AcDbPolyline
90
8
70
1
43
0.0
10
-122.50262638883345
20
88.591599923493902
10
-135.30512708883347
20
90.849026223493922
42
-0.4142135623730987
10
-135.71070687650607
20
91.428254188833478
10
-133.45328057530492
20
104.2307548956456
42
-0.41421350468441342
10
-132.87405270133902
20
104.63633469240592
10
-120.07155191116652
20
102.37890837650612
42
-0.41421350873642471
10
-119.66597210759403
20
101.79968050133905
10
-121.92339842469508
20
88.997179704354437
42
-0.41421355832109741
0
LWPOLYLINE
5
136
100
AcDbEntity
8
0
100
AcDbPolyline
90
8
70
1
43
0.0
10
-141.26321408883345
20
91.899597623493904
10
-154.06571478883342
20
94.157023923493909
42
-0.4142135087364025
10
-154.47129459240591
20
94.736251798660973
10
-152.21386827530492
20
107.53875259564559
42
-0.41421355832110762
10
-151.63464031116652
20
107.94433237650611
10
-138.83213961116655
20
105.68690607650611
42
-0.41421356237311735
10
-138.4265598234939
20
105.10767811116654
10
-140.68398612349392
20
92.30517741116654
42
-0.4142135623730559
0
LWPOLYLINE
5
137
100
AcDbEntity
8
0
100
AcDbPolyline
90
8
70
1
43
0.0
10
-232.49006547650609
20
42.37901041116654
10
-234.7474917924059
20
55.181511201339063
42
-0.41421350873637447
10
-234.3419119888334
20
55.760739076506113
10
-221.53941128883343
20
58.018165376506104
42
-0.414213562373137
10
-220.96018332349388
20
57.612585588833475
10
-218.70275702349389
20
44.810084888833472
42
-0.41421356237310863
10
-219.10833681116654
20
44.230856923493917
10
-231.91083751116653
20
41.973430623493911
42
-0.41421356237307877
0
LWPOLYLINE
5
138
100
AcDbEntity
8
0
100
AcDbPolyline
90
8
70
1
43
0.0
10
-170.82471851116654
20
72.088438523493906
10
-183.6272192111665
20
69.831012223493886
42
-0.41421356237307638
10
-184.20644717650612
20
70.23659201116655
10
-186.46387349240592
20
83.039092801339052
42
-0.41421350468445123
10
-186.05829369564557
20
83.618320675304943
10
-173.25579289866096
20
85.875746992405936
42
-0.41421350468436563
10
-172.67656502469507
20
85.470167195645601
10
-170.41913872349392
20
72.66766648883349
42
-0.41421356237317553
0
LWPOLYLINE
5
139
100
AcDbEntity
8
0
100
AcDbPolyline
90
8
70
1
43
0.0
10
-239.79477321116656
20
79.271033923493917
10
-252.59727391116652
20
77.013607623493897
42
-0.4142135623730438
10
-253.17650187650611
20
77.419187411166547
10
-255.43392817650613
20
90.221688111166543
42
-0.41421356237309687
10
-255.02834838883345
20
90.800916076506098
10
-242.22584768883351
20
93.058342376506118
42
-0.41421356237308482
10
-241.64661972349393
20
92.652762588833482
10
-239.38919342349391
20
79.850261888833472
42
-0.41421356237307272
0
LWPOLYLINE
5
140
100
AcDbEntity
8
0
100
AcDbPolyline
90
8
70
1
43
0.0
10
-184.47593441116652
20
108.36911472349391
10
-197.27843520133905
20
106.11168840759412
42
-0.41421350873641816
10
-197.85766307650607
20
106.51726821116655
10
-200.11508939240599
20
119.31976900133905
42
-0.4142135046843915
10
-199.70950959564561
20
119.89899687530497
10
-186.90700888883342
20
122.15642317650611
42
-0.41421356237312396
10
-186.32778092349389
20
121.75084338883349
10
-184.07035462349393
20
108.94834268883346
42
-0.41421356237308116
0
ENDSEC
0
SECTION
2
OBJECTS
0
DICTIONARY
5
C
100
AcDbDictionary
3
ACAD_GROUP
350
D
3
ACAD_MLINESTYLE
350
17
0
DICTIONARY
5
D
100
AcDbDictionary
0
DICTIONARY
5
1A
330
C
100
AcDbDictionary
0
DICTIONARY
5
17
100
AcDbDictionary
0
ENDSEC
0
EOF
